<?xml version="1.0" standalone="no"?>
<!DOCTYPE svg PUBLIC "-//W3C//DTD SVG 20010904//EN"
 "http://www.w3.org/TR/2001/REC-SVG-20010904/DTD/svg10.dtd">
<svg version="1.0" xmlns="http://www.w3.org/2000/svg"
 width="512.000000pt" height="512.000000pt" viewBox="0 0 512.000000 512.000000"
 preserveAspectRatio="xMidYMid meet">

<g transform="translate(0.000000,512.000000) scale(0.100000,-0.100000)"
fill="#000000" stroke="none">
<path d="M2 3953 c-1 -995 1 -1176 13 -1199 12 -25 12 -29 -3 -40 -15 -12 -11
-13 28 -14 l45 0 2 68 c8 245 15 323 34 374 10 29 19 71 19 93 0 22 9 73 20
113 11 39 19 84 19 99 l-1 28 -9 -30 c-7 -26 -8 -25 -4 10 3 22 5 64 5 93 0
29 5 52 10 52 7 0 11 -27 10 -67 0 -38 1 -93 3 -123 1 -30 -1 -127 -4 -215 -4
-88 -4 -140 0 -115 l6 45 8 -50 c3 -27 7 -167 7 -310 1 -208 -1 -260 -12 -261
-7 0 -55 -2 -105 -2 l-93 -2 0 -198 0 -198 64 4 63 4 7 -32 c13 -69 2 -320
-15 -320 -5 0 -13 15 -18 32 -5 18 -10 28 -10 21 -1 -6 -10 -9 -21 -6 -14 4
-20 0 -20 -10 0 -9 -5 -19 -11 -22 -6 -4 -9 2 -8 17 6 66 -2 178 -13 178 -8 0
-9 -30 -5 -110 4 -72 3 -109 -3 -105 -6 4 -10 -22 -10 -68 0 -71 7 -87 35 -87
1 0 6 29 10 64 5 53 10 65 27 69 18 5 19 2 13 -21 -4 -15 -9 -52 -12 -82 -3
-30 -10 -61 -15 -68 -16 -19 -5 -23 38 -13 22 5 30 10 19 11 -17 2 -16 3 5 10
14 4 40 8 57 9 25 1 36 8 48 31 8 16 15 35 15 43 0 28 21 36 55 20 28 -13 33
-21 32 -47 l-2 -31 78 1 c139 2 81 -14 -85 -22 -148 -8 -156 -9 -83 -14 l80
-5 -3 -32 c-2 -19 1 -33 7 -33 6 0 11 7 11 15 0 8 8 15 18 15 16 1 16 2 -1 14
-12 9 -14 16 -7 21 22 14 197 0 290 -22 52 -13 109 -23 125 -22 17 1 -16 12
-74 26 l-103 26 5 55 c3 30 8 56 11 59 3 3 19 0 35 -7 23 -9 31 -20 36 -49 l6
-37 92 4 c51 2 93 5 94 6 0 0 2 42 4 91 l3 90 -33 -2 c-18 0 -40 -8 -49 -16
-9 -8 -36 -17 -58 -20 l-42 -5 -4 77 c-7 131 2 271 19 271 12 0 13 -13 7 -70
-7 -72 2 -90 25 -47 9 17 9 30 2 51 -6 15 -11 29 -11 32 0 2 28 4 62 4 69 0
71 -6 7 -20 l-44 -9 50 4 c28 2 60 7 73 11 l22 6 0 -653 c0 -360 -3 -671 -6
-691 -7 -41 -11 -43 -92 -53 l-52 -7 0 44 c0 23 3 73 7 111 l6 67 38 0 39 0 0
48 c0 26 3 98 7 161 l6 114 -26 -5 c-33 -6 -33 -8 -12 182 18 164 18 150 3
150 -9 0 -14 -23 -15 -78 -1 -42 -13 -144 -27 -227 -14 -82 -28 -211 -32 -285
-3 -74 -10 -209 -14 -300 -7 -140 -8 -117 -6 156 1 288 -1 324 -16 340 -9 11
-35 55 -57 99 -22 45 -50 91 -61 103 l-21 23 -40 -23 c-46 -25 -96 -70 -126
-113 -16 -22 -30 -30 -55 -31 -18 -1 -49 -2 -68 -3 -35 -1 -36 -2 -37 -41 -1
-22 -6 -46 -10 -53 -9 -14 -10 -27 -13 -149 -2 -71 -5 -88 -17 -88 -12 0 -14
-7 -10 -30 7 -31 -9 -43 -19 -15 -26 66 -33 -139 -10 -239 8 -34 17 -70 19
-81 3 -15 6 -12 12 13 l8 33 16 -23 c10 -14 16 -47 17 -87 1 -39 6 -67 13 -69
7 -2 11 21 11 75 0 49 4 73 9 63 12 -21 141 -15 141 6 0 8 6 14 14 14 24 0 29
30 33 185 2 83 7 157 11 165 4 8 9 -37 12 -100 5 -110 6 -115 28 -118 25 -4
29 -27 7 -40 -14 -7 -14 -10 2 -25 25 -22 56 -12 70 21 7 15 16 70 22 122 15
149 30 167 30 38 1 -63 5 -108 11 -108 5 0 6 8 3 17 -5 12 -2 15 10 10 14 -5
17 0 17 26 1 70 13 222 18 227 6 6 -6 -504 -14 -587 -5 -46 -10 -60 -20 -56
-15 5 -16 4 -18 -39 -2 -23 2 -28 20 -28 29 0 36 21 44 145 l7 100 3 -105 c3
-103 4 -104 9 -35 l6 70 215 0 c118 0 224 -2 235 -5 18 -4 20 0 20 45 l0 50
45 -4 c38 -4 41 -5 20 -12 l-25 -7 28 -1 c18 -1 27 -7 28 -18 1 -10 3 -25 4
-33 1 -8 3 -44 5 -80 2 -56 4 -60 10 -30 4 21 8 -30 9 -127 l1 -163 90 0 c87
0 90 1 90 23 0 12 1 113 2 223 l3 202 -65 6 c-36 3 -83 7 -105 8 -23 1 -8 4
35 7 41 4 91 3 110 -2 19 -5 60 -12 90 -14 47 -4 53 -3 42 10 -10 12 -10 16 1
20 16 6 140 -8 155 -17 5 -3 12 3 15 13 4 16 15 19 62 20 32 0 63 5 68 10 6 6
-44 8 -142 4 -83 -3 -151 -3 -151 1 0 4 7 20 15 36 19 36 53 46 91 27 36 -18
189 -34 161 -16 -11 6 -34 11 -52 11 -19 0 -35 5 -38 11 -13 42 -15 436 -3
849 l9 308 36 7 c20 4 40 6 45 5 5 -2 17 5 27 14 18 16 19 16 20 -2 2 -28 7
-73 14 -121 6 -42 7 -43 48 -45 23 -1 54 -2 70 -1 15 1 27 -1 27 -2 0 -12 -72
-123 -89 -139 -21 -19 -21 -19 -21 0 0 16 -2 17 -10 4 -15 -23 -13 -313 2
-308 6 2 18 40 25 84 21 125 41 193 84 287 23 50 38 95 35 104 -4 9 -1 20 6
24 9 6 14 46 15 144 1 98 -1 134 -9 129 -8 -5 -9 -1 -4 12 14 34 19 104 8 104
-6 0 -13 -17 -15 -37 -3 -33 -4 -31 -5 12 -3 64 -36 239 -61 313 -21 65 -38
232 -23 232 5 0 12 -44 14 -98 6 -105 32 -187 89 -277 24 -38 27 -50 18 -62
-11 -12 -9 -13 12 -8 17 4 30 1 38 -9 8 -9 19 -16 26 -16 7 0 18 -7 25 -15 7
-8 17 -15 22 -15 6 0 5 6 -2 14 -22 28 -79 146 -94 198 -8 29 -29 106 -46 172
-31 118 -36 159 -10 88 7 -20 24 -53 36 -72 13 -19 24 -38 24 -42 0 -4 5 -19
12 -35 6 -15 12 -30 12 -33 1 -3 5 -10 8 -16 4 -6 14 -37 23 -69 18 -70 30
-86 21 -27 -3 23 -3 42 2 42 4 0 30 -29 56 -66 50 -67 70 -79 42 -25 -19 35
-64 103 -74 111 -4 3 -15 17 -24 31 -15 24 -15 27 0 43 15 14 15 18 3 26 -10
6 -19 3 -29 -8 -10 -13 -12 -13 -8 -2 3 8 9 22 12 31 10 29 73 49 170 56 l94
6 -42 31 c-38 28 -49 31 -113 30 -38 0 -101 -6 -138 -13 -74 -15 -72 -15 -81
14 -5 19 1 22 56 34 35 7 84 19 109 27 25 8 52 12 60 9 9 -3 49 -8 90 -10 40
-2 85 -6 98 -7 33 -4 107 -95 121 -150 6 -24 16 -57 21 -74 17 -57 12 -80 -21
-94 -17 -7 -48 -33 -70 -58 -34 -40 -44 -46 -74 -44 -26 2 -36 -2 -39 -15 -3
-10 -5 -5 -4 11 1 16 -3 31 -9 33 -13 4 -64 -121 -65 -162 -1 -43 -13 -80 -25
-80 -13 0 -44 -31 -44 -44 0 -5 -6 -14 -13 -18 -7 -4 -35 -41 -62 -82 -27 -40
-51 -68 -53 -62 -2 6 3 23 12 36 13 19 14 30 6 45 -6 11 -9 24 -6 28 9 14 9
152 1 154 -5 2 -14 -31 -21 -72 -13 -86 -27 -260 -21 -260 2 0 39 47 82 105
43 58 81 103 83 100 10 -10 -32 -106 -64 -143 -32 -38 -33 -59 -2 -47 7 3 33
44 58 90 24 47 48 85 51 85 15 0 -20 -111 -49 -157 -41 -64 -99 -216 -123
-322 -11 -47 -24 -162 -30 -256 -6 -93 -12 -186 -14 -205 -2 -19 -6 -89 -9
-155 l-5 -120 11 92 c10 88 12 93 34 93 22 0 24 -4 24 -47 0 -25 3 -43 6 -40
11 10 24 217 33 502 8 265 9 271 37 343 26 66 97 163 110 150 2 -3 -6 -39 -19
-79 -13 -41 -34 -116 -47 -168 -21 -87 -22 -102 -12 -182 7 -48 9 -95 5 -106
-6 -14 -9 -9 -14 22 -3 22 -7 -32 -8 -120 0 -88 -8 -234 -17 -324 -14 -131
-15 -186 -7 -280 6 -64 8 -118 6 -121 -8 -9 -42 46 -64 104 -21 54 -23 57 -37
40 -11 -15 -13 -42 -9 -122 3 -57 1 -102 -4 -102 -5 0 -9 3 -10 8 0 4 -7 54
-14 112 l-14 105 3 -113 c3 -80 1 -111 -7 -103 -20 20 -25 115 -20 328 5 159
3 231 -8 290 -14 81 -19 305 -7 358 7 28 6 28 -9 -5 -18 -38 -24 -213 -11
-325 l7 -60 -30 65 c-17 36 -34 92 -39 125 l-7 60 -2 -62 c-1 -56 -3 -63 -21
-63 -12 0 -24 -10 -30 -24 -5 -14 -10 -178 -12 -365 l-3 -341 -36 0 c-20 0
-42 -7 -49 -15 -9 -10 -9 -15 -1 -15 6 0 11 4 11 10 0 5 17 9 38 9 20 0 55 1
77 1 22 1 41 -3 43 -9 2 -6 13 -11 25 -11 21 0 21 -1 -3 -20 -30 -24 -13 -25
45 -5 22 8 45 15 52 15 6 0 69 -27 138 -61 70 -33 130 -58 132 -55 3 3 -30 21
-73 41 -44 19 -90 42 -104 51 -14 8 -33 18 -42 21 -25 8 -22 16 11 36 26 15
30 15 42 1 7 -8 26 -21 43 -29 23 -10 26 -14 12 -14 -11 -1 -27 6 -37 15 -9 8
-28 14 -41 12 -18 -3 -1 -14 71 -51 87 -43 151 -61 136 -37 -3 6 -15 10 -26
10 -10 0 -19 5 -19 10 0 15 29 12 46 -5 9 -8 26 -15 39 -15 20 0 23 4 21 40
-1 22 -2 40 -1 40 0 0 27 -9 60 -21 75 -26 165 -34 291 -24 l99 8 -50 13 c-27
7 -54 13 -58 14 -5 0 -5 5 -2 10 4 6 -6 10 -22 11 -24 0 -25 2 -8 8 l20 8 -20
6 c-11 3 -44 11 -72 18 -29 7 -53 16 -53 21 0 4 -7 8 -15 8 -9 0 -34 9 -56 21
-23 11 -43 18 -46 15 -3 -3 3 -9 13 -14 43 -17 97 -56 84 -60 -7 -3 -15 0 -19
5 -3 6 -30 13 -58 16 -49 6 -52 5 -41 -12 6 -10 16 -18 22 -18 31 1 46 -4 46
-14 0 -7 -14 -9 -37 -5 -21 3 -39 5 -41 6 -2 0 0 5 3 10 4 7 -2 9 -19 4 -32
-8 -96 13 -96 32 0 9 -5 12 -10 9 -6 -4 -17 -2 -25 5 -16 13 -5 62 22 93 10
11 13 17 6 13 -20 -11 -29 56 -25 172 2 53 6 59 31 43 12 -8 12 -12 2 -25 -17
-20 -2 -20 35 -2 39 21 52 7 19 -21 -15 -13 -24 -27 -20 -31 4 -4 15 3 25 15
19 25 40 31 120 38 81 7 197 29 207 39 5 5 -41 5 -107 1 -213 -14 -241 -14
-259 7 -8 10 -21 18 -27 18 -26 0 -40 165 -25 275 11 75 22 164 25 210 1 11 6
19 12 18 6 -1 15 45 22 112 7 63 17 126 22 140 6 15 10 38 10 52 0 29 50 143
62 143 5 0 4 -9 -2 -19 -14 -27 -13 -81 3 -81 13 0 47 74 47 105 0 37 15 48
34 26 17 -19 17 -21 -12 -58 -35 -45 -57 -106 -45 -128 6 -11 16 6 36 60 18
48 34 75 43 75 18 0 14 -15 -27 -108 -16 -35 -33 -61 -39 -57 -5 3 -10 -3 -10
-14 0 -23 -19 -28 -38 -9 -9 9 -12 9 -12 -3 0 -9 9 -24 19 -33 23 -21 35 -80
14 -72 -18 7 -17 -9 2 -24 19 -16 19 -34 -1 -51 -9 -7 -13 -21 -10 -34 4 -14
-2 -31 -15 -46 -26 -30 -6 -39 25 -10 25 24 46 27 46 8 0 -19 -20 -36 -36 -30
-18 7 -18 -14 -1 -32 15 -14 32 -8 32 13 0 6 4 11 10 10 5 -2 8 -12 7 -23 -2
-17 -1 -17 7 -5 16 23 13 7 -6 -31 -9 -19 -24 -40 -32 -47 -14 -12 -14 -13 5
-9 18 4 20 0 16 -22 -5 -27 3 -24 22 7 24 41 69 107 87 126 14 15 19 16 19 5
0 -8 -5 -20 -12 -27 -17 -17 -2 -27 17 -12 21 17 29 7 15 -20 -6 -12 -9 -28
-6 -36 9 -24 -11 -16 -33 13 -19 26 -20 27 -21 6 0 -23 48 -69 90 -85 14 -6
35 -15 47 -21 26 -12 45 -1 23 14 -8 5 -27 12 -42 16 -20 4 -28 12 -28 27 0
11 -3 32 -6 46 -5 23 -4 24 9 8 8 -10 17 -15 20 -11 4 3 7 1 7 -5 0 -6 -5 -14
-12 -18 -12 -8 41 -32 75 -33 23 -1 24 61 1 80 -18 15 -18 19 2 -53 6 -20 5
-21 -10 -9 -9 7 -16 20 -16 27 0 8 -5 14 -11 14 -14 0 -39 25 -39 39 0 6 -7
11 -15 11 -9 0 -15 9 -15 25 0 30 18 33 28 4 8 -20 10 -20 24 -5 9 9 26 16 37
16 12 0 21 6 21 15 0 11 -12 15 -44 15 -24 0 -51 3 -60 6 -11 4 -16 1 -16 -10
0 -9 -7 -16 -16 -16 -11 0 -14 5 -10 16 3 9 6 21 6 27 0 8 23 11 75 10 l75 -2
0 30 c0 17 4 28 10 24 5 -3 9 -23 9 -43 0 -20 4 -59 10 -87 6 -27 15 -75 20
-105 5 -30 14 -66 20 -80 13 -31 6 47 -14 160 -18 102 -27 206 -13 165 5 -16
18 -49 28 -71 43 -94 107 -240 115 -259 4 -11 7 -29 6 -40 -5 -31 -52 -119
-72 -133 -23 -16 -25 -32 -4 -32 8 0 15 5 15 10 0 6 9 10 21 10 15 0 19 4 15
16 -6 16 12 60 21 51 2 -3 0 -15 -7 -26 -7 -13 -7 -21 -1 -21 17 0 34 42 34
83 l0 40 23 -38 c27 -45 42 -131 25 -148 -6 -6 -11 -19 -11 -30 0 -10 -4 -16
-8 -13 -4 2 -6 37 -5 78 3 47 0 69 -6 63 -11 -12 -17 -147 -7 -163 9 -15 -13
-109 -35 -154 -11 -21 -19 -53 -19 -73 0 -19 -4 -35 -10 -35 -5 0 -10 10 -10
22 0 33 -11 14 -12 -21 -1 -18 4 -37 11 -44 10 -9 11 -8 6 4 -4 10 -2 20 4 24
7 4 11 -13 11 -52 l0 -59 -42 -14 c-39 -14 -43 -19 -45 -50 -3 -38 19 -76 36
-65 6 3 9 11 6 16 -4 5 -1 9 4 9 6 0 11 -5 11 -11 0 -6 7 -8 17 -5 12 5 36
-12 85 -61 37 -37 70 -64 74 -60 4 3 1 13 -6 22 -22 27 -6 25 30 -3 l35 -27
-125 -5 c-69 -3 -129 -3 -135 1 -30 21 -83 20 -131 -3 l-49 -23 694 -3 c625
-2 696 -1 712 14 13 11 27 14 50 9 17 -4 27 -10 21 -14 -6 -3 24 -7 66 -7 42
0 66 3 52 6 -18 4 -25 13 -24 28 0 12 -3 22 -8 22 -4 0 -8 -8 -8 -19 0 -25
-46 -16 -53 10 -4 14 1 21 21 25 15 3 45 15 68 25 64 30 68 28 61 -41 -4 -33
-3 -60 2 -60 13 0 21 53 21 136 0 67 2 74 20 74 11 0 20 5 20 10 0 6 -9 10
-19 10 -11 0 -23 5 -27 12 -11 18 -14 181 -4 193 20 24 -23 46 -81 43 l-54 -3
-3 -107 -3 -108 30 0 c17 0 31 -6 35 -16 5 -13 9 -14 21 -4 15 12 45 7 45 -8
0 -16 -187 -59 -200 -46 -10 11 -1 74 11 74 5 0 9 5 9 10 0 6 -11 10 -24 10
-24 0 -25 -2 -21 -54 l4 -55 -53 -15 c-30 -9 -61 -16 -70 -16 -19 0 -22 -20
-3 -20 6 0 4 -5 -6 -11 -22 -13 -47 -5 -47 16 0 8 -6 15 -12 15 -7 0 -22 14
-33 30 -11 16 -23 30 -27 30 -10 0 -21 -82 -12 -89 5 -3 14 -16 21 -27 11 -21
9 -23 -34 -33 -25 -7 -47 -10 -50 -7 -2 2 9 7 26 11 24 5 31 12 31 31 0 38
-46 32 -86 -11 -37 -40 -47 -39 -102 12 -20 19 -45 42 -55 51 -10 9 -16 23
-13 32 29 88 47 125 58 122 7 -2 63 -7 123 -10 95 -6 110 -9 107 -24 -2 -14 1
-15 20 -6 20 10 23 19 25 81 1 38 0 67 -2 65 -3 -2 -11 -29 -20 -59 l-15 -54
4 62 c5 73 79 264 84 219 2 -15 7 -24 11 -21 5 2 16 -23 26 -55 13 -43 23 -60
35 -60 37 0 40 18 29 239 -6 123 -7 217 -2 222 5 5 6 35 2 67 -4 31 -8 81 -8
111 -2 94 -12 48 -20 -86 l-8 -128 -3 195 c-1 138 -5 183 -11 153 -4 -24 -15
-57 -23 -75 -8 -18 -17 -50 -21 -71 -5 -32 -9 -36 -21 -27 -11 10 -14 10 -14
-1 0 -21 17 -42 27 -36 19 12 33 -106 25 -208 l-8 -100 -8 60 c-12 85 -43 240
-62 305 -8 30 -19 96 -23 145 -5 50 -9 77 -11 60 -2 -30 -2 -30 -10 -5 -12 39
-11 93 4 119 10 19 14 20 19 8 3 -9 4 -31 1 -49 -6 -33 -5 -33 38 -36 23 -1
58 -7 76 -12 l32 -8 -1 106 c0 86 -4 115 -21 150 -22 47 -28 120 -18 212 l7
55 2 -65 c3 -74 10 -95 31 -95 8 0 17 -11 21 -25 l6 -25 7 30 c4 17 14 46 21
65 39 99 82 348 86 506 2 41 3 37 9 -26 11 -108 -13 -280 -58 -410 -11 -30
-24 -93 -31 -140 -7 -47 -16 -114 -21 -150 -23 -159 -23 -180 -6 -180 10 0 16
9 16 23 1 69 20 249 29 264 8 13 11 -21 12 -122 1 -89 4 -129 9 -110 4 17 6
-27 3 -98 -5 -129 -1 -177 17 -177 6 0 10 80 10 213 l0 213 38 2 c20 1 53 5
72 8 l35 5 3 85 c5 120 -1 138 -49 157 -39 15 -39 16 -39 69 0 29 -5 84 -10
121 -6 38 -7 79 -4 93 7 26 25 29 97 18 l37 -7 1 -106 c2 -93 3 -99 9 -51 5
30 8 81 9 113 l1 57 48 2 47 1 -42 4 c-43 4 -55 20 -35 49 12 18 228 37 337
29 55 -4 133 -9 173 -12 l72 -5 0 211 0 211 -142 0 -141 0 7 149 c9 210 24
1042 32 1794 l6 637 -96 0 -96 0 0 -1267 c0 -698 -3 -1278 -6 -1290 -6 -23 -7
-23 -224 -23 l-218 0 -15 33 c-8 17 -27 57 -41 88 -27 58 -179 229 -203 229
-7 0 -13 12 -13 26 0 24 -1 25 -17 8 -17 -16 -17 -18 1 -28 74 -43 194 -188
243 -294 64 -137 112 -322 113 -427 0 -100 -27 -285 -55 -368 -14 -43 -25 -90
-26 -105 0 -16 -3 -21 -6 -12 -8 21 -26 31 -34 19 -3 -6 -12 25 -19 68 -6 43
-15 84 -19 91 -4 7 -15 -36 -25 -95 -24 -143 -54 -227 -111 -315 l-46 -73 6
-79 c5 -51 22 -123 51 -208 62 -183 76 -265 72 -401 -3 -110 -5 -117 -42 -190
-21 -43 -42 -77 -47 -77 -4 0 -11 26 -14 57 -4 32 -16 83 -26 113 -19 54 -19
40 2 -55 4 -22 8 -63 9 -91 0 -44 -3 -53 -30 -72 -25 -19 -33 -20 -50 -10 -31
20 -32 38 -10 144 21 104 26 171 10 143 -10 -17 -50 -206 -50 -237 0 -11 13
-34 30 -52 34 -37 36 -40 15 -40 -8 0 -15 -4 -15 -10 0 -25 39 -5 79 40 24 27
48 50 53 50 5 0 8 -26 6 -57 l-3 -58 -50 1 c-27 0 -70 3 -95 6 -25 4 -57 7
-72 7 l-28 1 1 308 c0 292 1 306 17 282 34 -49 76 -92 100 -101 33 -13 36 -7
17 32 -8 19 -13 26 -10 16 2 -9 0 -17 -5 -17 -17 0 -38 54 -45 118 -8 69 -23
130 -24 99 -1 -10 -5 -15 -11 -12 -12 7 -14 242 -2 249 5 3 37 -79 72 -182 34
-103 69 -198 76 -212 7 -14 23 -60 35 -103 12 -42 24 -76 26 -73 5 5 -37 188
-47 201 -17 24 -82 201 -118 325 -70 236 -82 358 -53 550 24 163 28 174 87
247 87 106 129 243 107 347 -21 97 -71 209 -127 281 -117 150 -176 256 -184
330 l-4 40 32 -30 c225 -213 300 -302 376 -441 21 -38 41 -71 46 -74 13 -9 45
-112 64 -202 18 -92 22 -201 12 -353 -4 -75 -4 -87 3 -50 20 107 22 286 4 380
-24 132 -48 192 -121 315 -83 141 -126 194 -290 360 -73 74 -144 155 -158 180
-31 54 -32 51 -6 -23 11 -31 20 -70 20 -87 0 -49 55 -167 116 -250 177 -242
225 -373 189 -525 -17 -76 -44 -128 -100 -195 -43 -51 -50 -68 -114 -259 -143
-429 -211 -663 -211 -726 0 -57 -61 -164 -175 -305 -24 -30 -44 -63 -45 -72 0
-20 -20 -35 -20 -16 0 7 -16 28 -35 47 -93 90 -316 562 -388 821 -22 82 -24
86 -33 77 -3 -3 2 -32 12 -64 20 -69 36 -241 23 -264 -12 -24 -77 -31 -124
-14 l-40 14 50 1 c48 0 49 0 27 16 -15 10 -37 15 -62 12 -32 -3 -40 0 -45 17
-5 17 -8 14 -19 -18 -8 -21 -16 -41 -19 -43 -12 -12 -13 145 -2 184 8 24 11
51 8 60 -4 15 -3 15 6 2 10 -13 13 -13 22 3 13 23 29 22 29 -2 0 -10 6 -24 14
-31 8 -6 12 -18 9 -26 -3 -8 0 -14 6 -14 21 0 42 48 48 114 6 63 7 66 32 66
96 2 203 38 262 89 22 18 42 31 45 29 9 -10 102 -244 109 -277 4 -18 19 -58
35 -90 15 -31 30 -63 33 -71 4 -10 6 -7 6 7 1 13 -12 52 -29 86 -16 35 -30 69
-30 75 0 5 -21 64 -46 129 -63 158 -65 168 -48 190 13 17 13 17 14 0 0 -10 5
-15 10 -12 6 4 8 16 4 28 -6 18 -5 19 8 7 17 -17 48 -104 48 -133 0 -11 3 -17
7 -13 4 4 6 39 5 79 -4 109 23 128 32 23 2 -20 6 -37 10 -37 4 -1 26 10 48 25
l41 27 -7 -41 c-3 -22 -24 -95 -47 -162 -22 -67 -38 -131 -36 -142 4 -25 1
-32 56 134 22 69 43 143 47 165 4 22 11 48 16 59 7 12 6 22 -1 29 -7 7 -7 16
0 29 6 11 15 61 19 112 5 51 18 111 29 136 11 25 27 87 36 139 19 112 24 123
69 149 32 19 35 25 34 64 -1 24 2 84 7 134 4 50 4 104 -1 120 -6 22 -10 -1
-14 -89 -4 -64 -9 -120 -13 -123 -3 -4 -21 3 -40 15 -39 24 -47 51 -47 171 0
117 -18 295 -42 415 -29 146 -35 117 -9 -43 21 -132 41 -350 41 -459 0 -52 -3
-61 -15 -57 -8 4 -21 1 -29 -5 -28 -24 -92 83 -128 212 -15 55 -21 119 -27
277 -6 185 -7 197 -14 125 -10 -97 7 -357 27 -436 20 -74 64 -166 87 -183 18
-13 18 -14 -5 -31 -14 -11 -27 -29 -31 -42 -7 -31 -28 -29 -70 8 -41 36 -46
32 -10 -7 14 -15 25 -31 25 -36 0 -5 -39 -49 -86 -98 -86 -87 -87 -88 -119
-77 -55 20 -115 78 -121 117 -3 19 -14 48 -25 63 -20 28 -20 29 -2 49 15 17
18 40 20 155 1 74 3 136 5 137 22 16 111 66 113 64 1 -2 12 -43 24 -92 12 -48
32 -115 46 -147 13 -32 21 -67 18 -78 -2 -10 0 -22 6 -25 7 -5 11 2 11 15 0
21 1 22 20 4 11 -10 20 -13 20 -7 0 6 -5 14 -10 17 -14 9 -66 125 -85 189 -30
100 -46 234 -52 450 -6 202 -5 219 10 213 16 -6 16 -3 2 30 -13 29 -30 179
-33 282 -1 13 -3 25 -5 27 -3 3 -35 7 -141 18 -21 2 -42 10 -47 17 -42 67
-134 443 -149 609 l-7 85 -2 -72 c-2 -132 56 -414 119 -574 11 -27 20 -51 20
-53 0 -7 -76 11 -100 24 -49 26 -145 95 -189 134 -67 63 -115 141 -151 249
-31 94 -32 102 -20 157 7 32 10 64 8 72 -5 13 -28 -102 -28 -139 0 -36 60
-194 94 -247 81 -126 272 -266 364 -266 26 0 45 -7 56 -19 17 -19 17 -20 -16
-25 -18 -3 -69 -7 -113 -10 -89 -6 -197 -37 -175 -51 7 -4 27 -11 44 -14 29
-6 31 -11 37 -57 8 -64 31 -113 72 -151 75 -70 134 -65 187 15 29 44 32 57 35
162 1 33 5 44 16 42 25 -6 46 -32 53 -65 3 -18 13 -57 21 -87 10 -38 15 -102
15 -215 0 -89 5 -210 11 -269 10 -106 10 -107 -13 -126 -43 -35 -199 -112
-215 -106 -11 5 -14 2 -9 -9 26 -68 65 -221 70 -273 3 -34 15 -80 26 -102 11
-21 20 -41 20 -43 0 -3 -26 -7 -57 -9 -46 -4 -65 -10 -90 -33 -19 -17 -33 -39
-33 -52 0 -13 -4 -23 -10 -23 -5 0 -7 7 -4 15 4 8 1 15 -5 15 -6 0 -18 11 -27
25 -12 19 -14 28 -5 39 7 9 8 22 3 37 -5 13 -12 49 -16 80 -7 57 -17 76 -90
166 -57 69 -62 72 -132 72 -34 0 -98 4 -141 10 -43 6 -120 13 -171 15 -85 5
-93 4 -88 -12 15 -50 17 -72 8 -72 -11 0 -9 -10 42 -203 41 -152 49 -173 89
-235 35 -54 31 -62 -9 -19 -43 46 -89 123 -116 192 -19 51 -23 79 -23 178 0
102 -2 118 -17 123 -10 3 -26 1 -35 -5 -14 -8 -15 -11 -3 -11 8 0 -3 -9 -25
-20 -35 -17 -38 -20 -19 -26 19 -5 23 -18 33 -94 6 -49 23 -131 37 -182 62
-229 70 -317 36 -385 -29 -55 -59 -79 -123 -97 -31 -9 -73 -25 -94 -36 -21
-11 -41 -17 -45 -15 -4 3 -11 21 -15 42 -5 27 -9 33 -16 22 -5 -8 -9 -26 -9
-41 0 -26 -3 -28 -37 -28 -53 0 -83 10 -83 26 0 8 -10 14 -25 14 -25 0 -29 9
-26 57 1 11 -3 24 -9 28 -19 12 -43 -21 -45 -61 -4 -58 -21 -51 -22 8 -2 169
-2 170 -20 166 -10 -2 -19 -13 -21 -26 -2 -12 -15 -35 -29 -50 -14 -15 -35
-47 -46 -72 -11 -25 -26 -53 -35 -63 -14 -16 -14 -19 4 -32 18 -15 18 -16 -11
-14 -43 2 -72 -2 -59 -7 8 -4 10 -34 7 -100 -3 -53 1 -184 8 -292 8 -109 13
-269 11 -357 -1 -88 0 -176 4 -195 l7 -35 6 30 c6 30 27 38 25 10 0 -8 -1 -35
-2 -59 -3 -61 -23 -79 -76 -70 -22 4 -61 8 -86 8 -28 1 -45 6 -46 14 -1 6 -2
19 -3 27 0 8 -7 12 -16 9 -8 -4 -15 -1 -15 6 0 6 -5 8 -10 5 -6 -3 -10 -20
-10 -36 0 -21 -6 -32 -22 -39 -17 -7 1 -9 62 -8 67 1 85 -2 85 -13 0 -10 -14
-14 -47 -15 -45 -2 -89 -26 -69 -38 5 -3 46 -1 92 5 84 10 224 4 249 -11 21
-13 4 -60 -23 -61 -12 0 -33 -3 -47 -5 -14 -2 -153 -5 -310 -6 -157 0 -269 -3
-250 -4 19 -2 85 -8 145 -14 173 -17 205 -21 205 -31 0 -15 -115 -10 -280 11
-85 11 -156 20 -156 20 -1 0 -1 30 0 67 1 65 2 67 31 75 17 5 84 11 149 13 65
3 121 7 124 10 10 10 12 38 18 245 5 176 -9 790 -19 858 -2 12 -9 28 -15 34
-16 16 -16 200 0 270 6 29 13 45 15 36 3 -10 16 -18 31 -20 21 -2 27 -9 28
-28 1 -14 3 -65 4 -115 l3 -90 6 114 c4 78 10 116 19 119 6 2 12 12 12 21 0
15 12 18 78 22 137 7 346 3 367 -8 14 -7 45 -7 98 -1 55 7 82 6 91 -2 22 -18
27 14 11 67 -76 247 -78 436 -5 653 16 47 34 124 41 172 11 79 10 95 -10 183
-13 52 -40 142 -61 199 -22 56 -43 131 -48 167 l-10 64 -1 -54 c-1 -40 10 -86
38 -170 49 -144 61 -210 60 -325 -1 -50 -4 -81 -6 -68 -5 23 -23 31 -23 10 0
-26 -12 3 -20 49 l-8 48 -1 -52 c-1 -40 -5 -53 -16 -53 -10 0 -15 10 -15 27 0
37 -31 143 -41 143 -5 0 -9 8 -9 17 0 16 -14 10 -16 -8 -1 -5 -3 -17 -4 -26
-6 -43 -21 92 -20 187 1 96 16 223 19 160 0 -14 7 -34 14 -45 8 -11 19 -53 26
-92 7 -40 17 -73 23 -73 15 0 5 95 -27 240 -25 117 -27 136 -22 295 6 177 19
253 62 376 14 40 25 75 25 78 -1 17 -23 -33 -46 -104 -15 -44 -39 -102 -54
-130 -66 -120 -94 -274 -87 -485 2 -85 8 -166 12 -180 6 -18 5 -22 -3 -15 -24
22 -44 139 -45 259 -1 139 14 218 75 411 39 122 54 157 107 247 13 21 20 42
16 47 -3 6 2 25 12 43 9 18 18 38 19 43 1 6 16 31 33 57 17 26 29 53 25 61 -4
12 0 14 15 10 18 -5 20 -1 17 23 -2 16 -1 23 1 17 6 -19 8 -17 55 33 68 74 72
82 58 110 -11 20 -11 27 2 41 21 25 29 51 17 59 -5 3 -29 -4 -51 -15 -23 -11
-44 -18 -47 -16 -6 7 -4 8 69 38 36 15 57 21 48 14 -20 -16 -14 -27 14 -27 10
0 18 7 18 15 0 8 6 15 13 15 9 0 9 2 -1 9 -19 11 -6 19 130 84 121 58 196 87
226 87 9 0 24 5 32 11 11 8 0 9 -40 4 l-55 -6 32 33 c32 33 42 58 24 58 -5 0
-16 -10 -25 -22 l-17 -23 7 25 c6 23 6 24 -11 10 -11 -9 -16 -10 -11 -2 5 9
-8 12 -53 12 -48 0 -61 -3 -61 -15 0 -8 -5 -15 -11 -15 -6 0 -9 7 -5 15 4 13
-8 15 -74 15 -56 0 -80 -4 -80 -12 0 -9 -3 -9 -12 0 -9 9 -81 12 -264 12
l-252 0 -6 -82 c-25 -341 -41 -1412 -27 -1732 6 -142 9 -261 7 -264 -6 -6
-106 57 -105 66 1 4 1 458 0 1010 l-1 1002 -21 0 c-21 0 -21 -2 -16 -162 l5
-163 -10 163 c-10 148 -19 191 -31 145 -4 -17 -5 -17 -6 -1 -1 16 -29 17 -365
18 -343 0 -364 -1 -361 -17 14 -70 14 -83 1 -83 -8 0 -17 6 -19 13 -3 6 -6 -5
-6 -25 -1 -21 -4 -38 -9 -38 -4 0 -6 -21 -5 -47 l2 -48 -9 55 c-5 36 -5 57 2
61 5 4 9 24 8 45 -2 22 -2 46 -1 54 1 13 2 13 11 0 8 -12 10 -11 10 8 0 19 -5
22 -38 22 l-39 0 -5 -482 c-3 -278 -1 -523 4 -578 13 -122 18 -531 9 -678 -5
-90 -4 -109 6 -96 13 18 12 3 -7 -111 -5 -27 -6 -122 -3 -210 4 -127 8 -162
21 -172 12 -10 18 -7 32 20 10 18 21 31 26 30 5 -2 10 -28 12 -59 3 -49 5 -54
16 -38 13 17 15 17 47 1 29 -14 34 -14 37 -2 3 15 40 12 91 -7 35 -13 21 -18
-22 -8 -21 4 -39 4 -43 -1 -3 -5 -32 -9 -65 -9 -38 0 -58 -4 -54 -10 4 -6 55
-10 120 -10 65 0 116 -4 120 -10 3 -5 17 -10 30 -10 18 0 23 4 18 16 -5 14 -3
15 17 4 20 -11 22 -10 17 4 -4 9 -5 16 -3 16 4 0 177 -99 197 -114 15 -10 9
-18 -44 -60 l-61 -49 -310 7 c-171 4 -314 10 -318 12 -4 3 -8 526 -8 1162 0
636 -3 1221 -7 1300 l-6 142 -158 0 -159 0 1 -326 c0 -179 -2 -329 -5 -332 -3
-3 -6 118 -7 269 -1 151 -5 301 -9 334 -4 33 -8 -467 -8 -1112z m2265 1151
c-3 -3 -12 -4 -19 -1 -8 3 -5 6 6 6 11 1 17 -2 13 -5z m-982 -69 c6 -39 6 -39
-9 -15 -8 14 -15 36 -16 50 0 37 17 12 25 -35z m757 4 l-10 -34 -1 45 c-1 31
2 41 10 33 7 -7 7 -21 1 -44z m282 42 c4 -5 -3 -7 -14 -4 -23 6 -26 13 -6 13
8 0 17 -4 20 -9z m-56 -28 c-10 -2 -18 -9 -18 -15 0 -6 -3 -9 -6 -5 -4 3 -24
-3 -45 -13 -21 -11 -46 -19 -56 -19 -17 1 -17 2 0 6 16 4 18 9 16 31 0 4 10
10 23 13 28 6 110 9 86 2z m-2142 -91 c-13 -12 -17 8 -9 44 l8 39 3 -39 c2
-21 1 -41 -2 -44z m2019 68 c4 -6 -6 -10 -22 -10 -22 0 -25 2 -13 10 19 12 27
12 35 0z m-35 -50 c-8 -5 -19 -10 -25 -10 -5 0 -3 5 5 10 8 5 20 10 25 10 6 0
3 -5 -5 -10z m-130 -41 c0 -11 -6 -27 -14 -35 -19 -18 -32 -18 -17 0 6 8 11
18 10 22 -3 19 2 34 11 34 6 0 10 -9 10 -21z m-1840 -70 c0 -22 4 -48 9 -58 6
-10 6 -23 1 -31 -5 -8 -4 -22 2 -34 8 -15 8 -21 -1 -24 -6 -2 -11 -10 -11 -19
0 -8 6 -13 13 -11 7 3 14 28 17 59 l5 54 8 -79 c12 -132 9 -1058 -4 -1050 -8
4 -10 90 -9 283 4 412 0 572 -11 536 -5 -16 -7 -84 -4 -150 6 -130 -3 -295
-16 -295 -4 0 -8 58 -8 130 0 76 -4 138 -11 150 -13 24 -29 236 -19 252 4 6
12 7 18 4 14 -9 14 17 0 31 -9 9 -16 6 -30 -10 -18 -22 -18 -22 -19 26 0 44 2
48 20 42 26 -8 38 20 21 47 -11 18 -8 136 4 176 9 27 25 9 25 -29z m507 -25
c-9 -9 -28 6 -21 18 4 6 10 6 17 -1 6 -6 8 -13 4 -17z m573 -9 c0 -8 -4 -15
-10 -15 -5 0 -10 7 -10 15 0 8 5 15 10 15 6 0 10 -7 10 -15z m-583 -57 c-3 -8
-6 -5 -6 6 -1 11 2 17 5 13 3 -3 4 -12 1 -19z m1070 8 c-3 -8 0 -16 8 -18 9
-2 -1 -15 -26 -37 -22 -18 -43 -30 -46 -27 -4 3 7 17 23 31 16 14 25 25 21 25
-4 0 -3 9 3 20 12 23 25 27 17 6z m-360 -173 c-2 -32 -3 -6 -3 57 0 63 1 89 3
58 2 -32 2 -84 0 -115z m509 158 c-4 -5 -1 -11 6 -13 8 -3 8 -9 0 -24 -6 -10
-12 -13 -12 -6 0 7 -4 10 -10 7 -6 -3 -7 1 -4 9 3 9 1 16 -5 16 -6 0 -11 -4
-11 -10 0 -5 -4 -10 -10 -10 -18 0 -10 17 13 28 28 13 40 15 33 3z m64 -36
c-7 -8 -18 -15 -24 -15 -6 0 -3 7 7 14 9 7 17 19 18 27 0 11 2 11 6 1 3 -7 -1
-19 -7 -27z m-282 -7 c-2 -6 -10 -14 -16 -16 -7 -2 -10 2 -6 12 7 18 28 22 22
4z m-369 -65 c1 -7 -3 -13 -9 -13 -5 0 -10 17 -9 38 1 33 2 34 9 12 4 -14 8
-31 9 -37z m48 5 c-2 -13 -4 -5 -4 17 -1 22 1 32 4 23 2 -10 2 -28 0 -40z
m208 12 c-8 -9 -16 -36 -16 -61 -2 -33 -3 -37 -6 -15 -3 17 -2 50 2 74 5 36 9
41 21 31 13 -10 13 -14 -1 -29z m201 25 c-8 -8 -18 -15 -22 -15 -3 0 -1 7 6
15 7 8 17 15 22 15 5 0 3 -7 -6 -15z m218 -2 c3 -8 -4 -11 -22 -8 -15 1 -35 3
-45 4 -10 0 -16 4 -14 9 8 12 76 9 81 -5z m-114 -34 c0 -5 -4 -9 -10 -9 -5 0
-10 7 -10 16 0 8 5 12 10 9 6 -3 10 -10 10 -16z m60 -44 c0 -8 -4 -15 -10 -15
-5 0 -7 7 -4 15 4 8 8 15 10 15 2 0 4 -7 4 -15z m-570 -200 c-9 -17 -15 58
-10 115 5 54 5 54 10 -25 3 -44 3 -84 0 -90z m187 73 c-2 -13 -4 -3 -4 22 0
25 2 35 4 23 2 -13 2 -33 0 -45z m260 -29 c2 -16 -1 -19 -9 -11 -5 5 -7 15 -4
21 10 15 12 14 13 -10z m-1690 -107 c-3 -10 -5 -3 -6 13 -1 24 -3 27 -12 15
-9 -12 -10 -12 -5 3 3 10 6 26 7 35 0 9 5 2 10 -16 6 -19 8 -41 6 -50z m-40
46 c-3 -8 -6 -5 -6 6 -1 11 2 17 5 13 3 -3 4 -12 1 -19z m0 -115 c-3 -10 -5
-2 -5 17 0 19 2 27 5 18 2 -10 2 -26 0 -35z m1162 -3 c-16 -10 -32 -3 -23 11
3 5 10 7 15 4 5 -4 9 0 10 7 0 10 2 10 6 -1 3 -7 -1 -17 -8 -21z m158 -137
c-2 -32 -3 -6 -3 57 0 63 1 89 3 58 2 -32 2 -84 0 -115z m-1302 62 c0 -29 5
-50 15 -56 12 -9 12 -10 -4 -5 -16 6 -18 2 -12 -30 4 -19 10 -42 13 -50 3 -8
1 -14 -4 -14 -11 0 -12 5 -19 88 -5 53 0 112 9 112 1 0 2 -20 2 -45z m1501
-52 c-11 -11 -19 6 -11 24 8 17 8 17 12 0 3 -10 2 -21 -1 -24z m-9 -60 c-3
-10 -5 -2 -5 17 0 19 2 27 5 18 2 -10 2 -26 0 -35z m-1517 -89 c0 -8 5 -14 12
-14 6 0 8 -3 5 -6 -9 -10 -37 16 -37 33 0 8 5 11 10 8 6 -3 10 -13 10 -21z
m77 -6 c-3 -8 -6 -5 -6 6 -1 11 2 17 5 13 3 -3 4 -12 1 -19z m1529 -124 c-15
-140 -36 -409 -37 -489 l-1 -50 -16 45 c-21 60 -20 283 1 405 16 91 55 230 62
223 3 -2 -2 -62 -9 -134z m-1099 -246 c-3 -7 -5 -2 -5 12 0 14 2 19 5 13 2 -7
2 -19 0 -25z m2481 -1 c4 -35 -6 -34 -42 4 l-29 30 34 -3 c28 -4 35 -9 37 -31z
m-2898 -82 l0 -39 -19 38 c-16 30 -17 41 -8 51 17 18 27 0 27 -50z m782 -63
c-15 -5 -16 -22 0 -22 16 0 108 -60 108 -71 0 -5 -9 -9 -20 -9 -28 0 -25 -18
5 -32 14 -6 25 -17 25 -24 0 -7 23 -27 50 -45 28 -18 50 -34 50 -37 0 -2 -34
14 -75 37 -41 22 -75 36 -75 31 0 -6 4 -10 8 -10 5 0 56 -30 113 -67 200 -128
424 -247 452 -239 12 3 38 -9 68 -31 29 -20 56 -33 65 -29 9 3 12 2 9 -5 -4
-6 2 -13 14 -16 12 -3 21 -9 21 -14 0 -13 -7 -11 -50 16 -22 14 -46 25 -53 25
-7 0 -18 5 -24 11 -6 6 -17 9 -24 7 -8 -3 27 -26 76 -51 77 -40 92 -45 101
-32 6 8 13 12 16 9 3 -3 10 9 16 25 6 17 12 31 14 31 7 0 -3 -85 -12 -105 -45
-100 -74 -383 -50 -496 7 -33 11 -61 9 -64 -9 -8 -217 102 -247 132 -7 7 -31
17 -52 23 -42 11 -150 71 -196 108 l-28 23 39 35 40 35 -46 -29 c-57 -38 -79
-62 -55 -62 9 0 35 -13 58 -30 l41 -30 -88 0 -87 0 -60 -47 c-33 -27 -138
-112 -233 -191 l-173 -143 -7 -72 c-4 -40 -15 -97 -26 -128 -10 -31 -31 -118
-46 -193 l-28 -136 -29 0 c-27 0 -28 2 -22 33 21 102 37 217 46 329 5 69 15
138 21 151 6 14 45 52 86 84 41 32 154 122 252 200 337 273 584 453 600 437 3
-2 -8 -16 -24 -31 -24 -20 -25 -22 -5 -11 13 9 32 28 41 44 9 16 24 28 33 28
18 -2 22 11 6 21 -13 8 -64 -23 -259 -158 l-152 -105 -57 38 c-31 21 -92 59
-134 85 -68 41 -78 51 -84 82 -12 61 4 253 26 328 11 39 27 108 36 155 9 47
20 87 24 90 5 3 0 20 -12 38 -14 23 -27 32 -47 32 -76 0 -121 -156 -121 -415
0 -88 -4 -155 -9 -155 -18 0 -41 64 -47 129 -7 79 9 203 36 287 25 75 78 165
105 179 12 6 19 17 17 28 -3 17 -1 17 20 6 14 -7 18 -14 10 -17z m-222 -3 c0
-6 -13 -26 -29 -44 -37 -43 -89 -177 -104 -271 -6 -41 -15 -74 -19 -74 -20 0
4 183 34 253 36 87 118 181 118 136z m-60 -9 c0 -5 -4 -10 -10 -10 -5 0 -10 5
-10 10 0 6 5 10 10 10 6 0 10 -4 10 -10z m330 0 c0 -5 -5 -10 -11 -10 -5 0 -7
5 -4 10 3 6 8 10 11 10 2 0 4 -4 4 -10z m1858 -98 c37 -13 38 -11 15 25 l-18
26 28 -17 c22 -15 30 -16 42 -6 12 10 15 10 15 0 0 -20 -41 -50 -69 -50 -28 0
-101 44 -101 61 0 6 12 2 28 -9 15 -10 42 -24 60 -30z m-1285 -57 c4 -24 3
-34 -2 -25 -5 8 -12 38 -15 65 -7 57 7 25 17 -40z m-1006 3 c-3 -7 -5 -2 -5
12 0 14 2 19 5 13 2 -7 2 -19 0 -25z m1069 -52 c3 -7 -2 -37 -10 -67 -11 -38
-14 -43 -12 -19 3 19 8 47 11 63 5 17 3 27 -4 27 -6 0 -11 -7 -11 -17 0 -9 -3
-14 -6 -10 -9 9 3 37 16 37 6 0 13 -6 16 -14z m-59 -28 c-3 -7 -5 -2 -5 12 0
14 2 19 5 13 2 -7 2 -19 0 -25z m203 -298 c13 -8 13 -10 -2 -10 -9 0 -20 5
-23 10 -8 13 5 13 25 0z m1209 -292 c0 -51 -4 -111 -8 -133 l-9 -40 -1 50 c-1
35 -4 46 -11 35 -10 -17 -8 -22 -34 82 -19 78 -19 78 -6 78 6 0 10 -13 10 -30
0 -16 5 -30 10 -30 6 0 10 15 10 34 0 31 9 43 33 45 4 1 7 -41 6 -91z m356
-324 c-8 -32 -18 -92 -22 -133 -6 -67 -10 -78 -46 -120 -21 -25 -48 -57 -60
-70 -19 -24 -21 -24 -28 -5 -16 40 -11 55 16 48 19 -5 25 -2 25 10 0 9 9 25
19 35 10 10 22 29 26 41 7 21 6 21 -24 6 -17 -9 -41 -30 -53 -46 -12 -17 -25
-30 -28 -30 -3 0 -12 16 -19 35 -10 30 -10 37 3 51 9 8 16 19 16 24 0 5 27 19
60 31 33 12 60 26 60 30 0 12 0 12 -50 -6 -23 -8 -47 -15 -53 -15 -6 0 29 40
78 90 49 49 91 88 92 86 2 -2 -3 -30 -12 -62z m134 33 c-13 -28 -35 -42 -44
-27 -9 14 7 41 29 50 27 10 29 8 15 -23z m-1660 -209 c0 -16 -2 -28 -7 -28 -4
0 -8 26 -9 58 -1 45 0 51 7 27 4 -16 8 -42 9 -57z m1339 56 c2 -1 -3 -15 -11
-30 l-15 -28 -16 38 c-9 21 -16 40 -16 42 0 3 47 -15 58 -22z m-390 -115 c-15
-10 -62 -12 -71 -3 -11 11 14 49 46 72 l32 22 3 -41 c2 -27 -1 -45 -10 -50z
m1802 -3 c0 -31 -18 -37 -90 -29 -75 7 -79 27 -7 40 87 17 97 16 97 -11z
m-3390 5 c0 -11 -40 -22 -53 -14 -5 3 -3 9 4 14 18 11 49 11 49 0z m-616 -89
c-7 -42 -24 -104 -38 -137 l-25 -60 -1 136 0 137 39 0 38 1 -13 -77z m2775 56
c13 -20 10 -25 -40 -72 -50 -47 -54 -49 -57 -28 -2 15 10 41 34 72 21 28 41
50 44 50 3 0 11 -10 19 -22z m-3064 2 c14 -5 24 -14 21 -18 -3 -5 -6 -77 -7
-160 0 -84 -5 -155 -10 -158 -5 -3 -26 0 -46 7 l-36 12 6 111 c4 61 7 135 7
164 0 57 9 63 65 42z m3101 -125 c-18 -48 -21 -26 -4 30 6 22 13 33 15 25 2
-9 -3 -33 -11 -55z m84 15 c0 -45 -30 -116 -60 -145 -30 -29 -43 -17 -16 14
19 21 66 115 66 132 0 8 -7 6 -20 -6 -19 -18 -20 -17 -20 2 0 25 4 29 30 29
15 0 20 -7 20 -26z m-605 -177 c-3 -18 -10 -33 -16 -33 -6 0 -6 8 1 21 6 11
11 30 10 42 -1 12 -1 51 1 87 l3 65 4 -75 c2 -41 0 -90 -3 -107z m375 152 c0
5 5 4 11 -2 8 -8 5 -22 -10 -52 -12 -22 -22 -41 -24 -41 -1 0 -3 28 -3 61 -1
54 1 60 13 44 7 -11 13 -15 13 -10z m-403 -7 c-3 -8 -6 -5 -6 6 -1 11 2 17 5
13 3 -3 4 -12 1 -19z m-342 -47 c-2 -43 -9 -68 -25 -91 -12 -17 -24 -29 -26
-27 -9 9 40 177 52 177 0 0 0 -27 -1 -59z m804 0 c-10 -28 -39 -62 -39 -46 0
9 40 75 45 75 2 0 -1 -13 -6 -29z m-2745 -150 c-18 -123 -28 -148 -26 -64 2
49 32 196 39 189 2 -2 -4 -58 -13 -125z m2286 92 c0 -43 -5 -41 -13 5 -4 18
-2 32 3 32 6 0 10 -16 10 -37z m-285 3 c17 -12 18 -17 6 -57 -7 -24 -33 -83
-57 -131 -24 -48 -44 -91 -44 -95 0 -3 11 4 25 17 14 13 25 29 25 36 0 6 6 17
14 23 8 7 27 46 42 87 21 58 30 72 40 63 10 -9 9 -17 -6 -47 -57 -112 -103
-252 -116 -356 l-6 -49 -24 69 c-33 92 -28 168 21 306 20 57 39 113 42 126 6
26 12 27 38 8z m-1015 -51 c0 -15 -39 -42 -41 -28 0 4 -4 -3 -8 -17 -10 -33 6
-670 18 -735 13 -66 13 -142 1 -165 -5 -10 -13 -63 -16 -119 -4 -58 -12 -102
-18 -104 -8 -3 -11 49 -11 177 0 99 -5 348 -9 552 -5 204 -6 380 -1 390 4 11
7 23 6 27 -1 4 4 7 11 6 34 -4 48 2 48 22 0 11 5 17 10 14 6 -3 10 -13 10 -20z
m-1407 0 c-3 -9 -8 -14 -10 -11 -3 3 -2 9 2 15 9 16 15 13 8 -4z m1547 -9 c0
-3 -4 -8 -10 -11 -5 -3 -10 -1 -10 4 0 6 5 11 10 11 6 0 10 -2 10 -4z m1179
-32 c1 -1 1 -8 -1 -14 -2 -8 -13 -4 -28 10 l-25 21 25 -7 c14 -3 27 -8 29 -10z
m-1024 -216 c-4 -117 -7 -338 -8 -490 0 -153 -4 -278 -8 -278 -5 0 -13 8 -18
18 -9 14 -10 11 -11 -18 0 -19 4 -50 9 -68 6 -20 6 -32 0 -32 -5 0 -9 6 -9 13
0 7 -13 44 -29 82 -16 39 -32 100 -36 138 -4 37 -11 67 -16 67 -4 0 -10 15
-12 33 -3 26 -4 24 -5 -13 -2 -44 31 -183 63 -269 8 -24 13 -46 10 -49 -3 -4
-25 0 -48 8 l-42 15 -5 505 c-3 278 -9 511 -14 518 -6 10 -3 13 10 10 17 -3
20 -17 25 -155 3 -84 8 -155 11 -158 9 -9 20 79 27 205 l6 115 30 6 c17 4 41
7 54 8 l23 1 -7 -212z m-272 -100 c4 -161 6 -392 5 -513 l-2 -220 -7 175 c-15
407 -22 850 -12 850 6 0 12 -110 16 -292z m69 280 c-9 -9 -15 -9 -24 0 -9 9
-7 12 12 12 19 0 21 -3 12 -12z m2183 -40 c0 -29 4 -92 8 -140 7 -75 6 -87 -7
-82 -23 9 -30 -89 -17 -260 6 -83 13 -310 15 -503 4 -300 2 -353 -10 -353 -8
0 -14 -4 -14 -9 0 -5 9 -7 21 -4 18 5 19 2 13 -23 -4 -16 -17 -51 -30 -78 -21
-45 -21 -51 -7 -72 8 -13 27 -30 41 -37 35 -17 40 -37 9 -37 -14 0 -33 3 -42
6 -24 9 -44 68 -41 119 2 41 1 44 -14 30 -23 -21 -32 -19 -25 8 6 21 6 21 -9
3 -9 -11 -16 -15 -16 -9 0 5 19 29 42 51 27 27 36 42 26 42 -9 0 -44 -31 -79
-69 -53 -56 -189 -158 -233 -174 -6 -2 -8 -7 -5 -11 7 -7 161 91 198 125 l24
23 18 -22 c9 -12 22 -22 28 -22 6 0 18 -14 26 -30 17 -32 17 -32 -32 -43 -19
-4 -23 -1 -23 20 0 19 4 24 16 19 8 -3 12 -2 9 4 -3 6 -13 10 -21 10 -8 0 -12
5 -9 10 3 6 1 10 -4 10 -12 0 -15 -19 -12 -61 2 -22 -4 -26 -51 -38 -29 -7
-63 -19 -75 -27 -26 -16 -107 -8 -124 12 -6 8 -16 14 -22 14 -10 0 -36 30 -37
43 0 4 8 7 19 7 11 0 22 10 25 23 l7 22 12 -24 c9 -19 9 -25 -1 -29 -13 -4
-17 -32 -4 -32 5 0 17 6 27 14 14 10 17 17 9 27 -15 19 -64 181 -64 211 0 13
6 33 14 43 12 17 18 18 37 8 25 -13 200 -45 207 -39 2 2 -39 14 -90 25 -51 12
-99 24 -105 26 -23 8 144 148 227 190 12 6 18 17 15 30 -28 132 -58 334 -59
390 0 64 3 75 37 129 68 109 100 223 112 396 5 75 28 190 38 190 1 0 2 -24 2
-52z m-848 0 c-21 -7 -32 -7 -40 1 -8 8 0 11 29 10 39 -1 39 -1 11 -11z
m-1329 -493 c0 -132 -3 -249 -8 -260 -5 -12 -8 145 -8 370 1 282 3 354 9 260
3 -71 7 -238 7 -370z m1179 415 c1 -47 0 -50 -7 -22 -4 19 -13 39 -19 45 -17
17 -13 39 7 35 13 -2 17 -15 19 -58z m1565 -42 c2 -20 0 -34 -4 -32 -4 3 -7
26 -7 52 1 49 5 42 11 -20z m-627 -70 c-16 -143 -34 -209 -81 -296 -26 -48
-49 -81 -51 -75 -4 12 127 433 135 433 2 0 1 -28 -3 -62z m379 10 c-4 -13 -7
-29 -7 -35 0 -7 -4 -13 -9 -13 -8 0 -1 44 9 63 9 16 14 6 7 -15z m-1468 -39
c-8 -21 -15 -27 -15 -16 -1 17 20 59 27 53 1 -2 -4 -19 -12 -37z m5 -139 c-9
-24 -10 -24 -10 7 -1 17 2 40 7 50 6 15 7 14 10 -7 2 -14 -2 -37 -7 -50z m306
38 c-3 -7 -5 -2 -5 12 0 14 2 19 5 13 2 -7 2 -19 0 -25z m-1557 -25 c0 -13 -4
-23 -9 -23 -13 0 -22 30 -15 53 5 16 8 17 15 6 5 -8 9 -24 9 -36z m1340 -36
c0 -14 -49 -98 -49 -85 -1 22 30 88 41 88 4 0 8 -1 8 -3z m879 -497 c19 -115
26 -179 20 -187 -6 -6 -42 -30 -82 -54 -40 -23 -82 -51 -94 -61 l-22 -20 -33
37 c-62 70 -63 78 -24 139 19 30 40 74 47 98 7 24 27 60 44 80 17 20 49 67 70
104 22 38 41 61 42 53 2 -7 16 -93 32 -189z m241 160 c0 -5 -2 -10 -4 -10 -3
0 -8 5 -11 10 -3 6 -1 10 4 10 6 0 11 -4 11 -10z m-3400 -237 c0 -46 -3 -64
-10 -57 -10 10 -3 124 6 124 2 0 4 -30 4 -67z m2839 -50 c-9 -9 -8 -13 0 -13
8 0 6 -10 -4 -30 -15 -29 -15 -31 10 -40 16 -6 25 -17 25 -30 0 -12 -4 -18
-10 -15 -5 3 -10 2 -10 -4 0 -12 29 -41 41 -41 7 0 7 -6 0 -17 -7 -13 -5 -21
7 -30 16 -11 16 -12 0 -13 -10 0 -17 -3 -17 -7 5 -34 -7 -29 -41 17 -41 55
-50 85 -27 93 9 4 9 7 -1 18 -10 11 -15 10 -28 -3 -13 -13 -14 -22 -5 -54 16
-56 14 -64 -14 -64 -24 0 -29 -8 -26 -42 1 -9 -5 -30 -13 -45 l-15 -28 -1 32
c0 34 -18 83 -30 83 -15 0 36 193 79 304 l12 29 39 -43 c31 -33 37 -46 29 -57z
m883 -12 c3 -21 1 -28 -9 -24 -14 5 -18 35 -6 46 10 10 10 9 15 -22z m-2467
-6 c27 -8 51 -12 55 -10 4 2 16 -2 26 -10 18 -14 16 -15 -21 -14 -51 2 -137
28 -129 40 7 12 12 12 69 -6z m-288 -9 c13 -13 -6 -16 -61 -10 -31 4 -56 10
-56 15 0 9 107 5 117 -5z m173 4 c0 -5 -18 -10 -40 -10 -22 0 -40 5 -40 10 0
6 18 10 40 10 22 0 40 -4 40 -10z m673 -272 c-26 -29 -33 -12 -32 75 l0 82 24
-70 c22 -64 23 -71 8 -87z m1147 83 c0 -5 -7 -12 -16 -15 -14 -5 -15 -4 -4 9
14 17 20 19 20 6z m-1040 -65 c0 -3 -4 -8 -10 -11 -5 -3 -10 -1 -10 4 0 6 5
11 10 11 6 0 10 -2 10 -4z m758 -21 c-3 -3 -9 2 -12 12 -6 14 -5 15 5 6 7 -7
10 -15 7 -18z m-734 -25 c16 -33 11 -40 -10 -12 -13 16 -19 42 -10 42 3 0 11
-13 20 -30z m-34 -19 c0 -11 -5 -10 -20 4 -11 10 -20 22 -20 27 0 4 9 3 20 -4
11 -7 20 -19 20 -27z m-215 -9 c-3 -3 -11 0 -18 7 -9 10 -8 11 6 5 10 -3 15
-9 12 -12z m1076 -32 c7 0 9 -3 6 -6 -10 -10 -37 16 -36 35 0 11 3 9 9 -6 5
-13 15 -23 21 -23z m75 -8 c-32 -32 -35 -16 -4 23 14 18 23 24 26 16 2 -7 -7
-25 -22 -39z m-583 21 c-7 -2 -19 -2 -25 0 -7 3 -2 5 12 5 14 0 19 -2 13 -5z
m60 -10 c-7 -2 -21 -2 -30 0 -10 3 -4 5 12 5 17 0 24 -2 18 -5z m579 -50 c17
-46 17 -48 -3 -69 -21 -22 -59 -38 -59 -25 0 4 7 16 15 27 20 26 19 29 -10 30
-21 2 -25 -1 -19 -18 4 -14 2 -18 -5 -14 -6 4 -11 13 -11 20 0 13 60 96 70 96
3 0 13 -21 22 -47z m-295 1 c-15 -15 -27 -23 -27 -19 0 12 42 56 48 50 3 -3
-7 -17 -21 -31z m193 -10 c-15 -17 -30 -18 -30 -1 0 7 9 13 21 14 17 2 18 -1
9 -13z m815 -84 c3 -5 1 -10 -4 -10 -6 0 -11 5 -11 10 0 6 2 10 4 10 3 0 8 -4
11 -10z m-801 -16 c3 -8 2 -12 -4 -9 -6 3 -10 10 -10 16 0 14 7 11 14 -7z
m1071 -54 c3 -5 3 -15 0 -20 -7 -12 -45 5 -45 20 0 13 37 13 45 0z"/>
<path d="M90 4650 c0 -5 5 -10 10 -10 6 0 10 5 10 10 0 6 -4 10 -10 10 -5 0
-10 -4 -10 -10z"/>
<path d="M1309 2653 c-13 -16 -12 -17 4 -4 16 13 21 21 13 21 -2 0 -10 -8 -17
-17z"/>
<path d="M1710 1444 c0 -10 -3 -124 -5 -252 -4 -160 -2 -239 6 -253 8 -15 8
-28 -1 -48 -8 -21 -8 -33 4 -56 l15 -28 6 24 c8 34 -10 617 -20 627 -3 3 -5
-3 -5 -14z"/>
<path d="M1648 1368 c-2 -7 -1 -33 3 -58 l6 -45 1 58 c2 55 -2 71 -10 45z"/>
<path d="M3716 273 c-6 -14 -5 -15 5 -6 7 7 10 15 7 18 -3 3 -9 -2 -12 -12z"/>
<path d="M2480 5105 c-12 -15 3 -14 105 5 36 7 34 8 -26 9 -47 1 -70 -3 -79
-14z"/>
<path d="M2751 5086 c-41 -42 -32 -47 17 -9 33 25 41 26 151 26 88 0 135 -5
195 -22 72 -20 203 -88 281 -145 48 -36 62 -41 40 -17 -24 27 -113 86 -170
112 -22 10 -35 19 -30 19 23 0 114 -30 167 -55 32 -14 62 -24 68 -20 5 3 10
37 10 76 l0 69 -75 0 -75 0 0 -40 c0 -47 4 -47 -140 2 -76 27 -102 30 -245 35
l-160 5 -34 -36z"/>
<path d="M3490 5051 c0 -48 4 -70 13 -74 10 -4 14 8 16 45 1 28 6 58 11 68 14
27 13 30 -15 30 -24 0 -25 -2 -25 -69z"/>
<path d="M3563 5064 c4 -35 1 -63 -6 -75 -9 -15 -7 -22 12 -38 13 -11 28 -18
33 -15 5 3 12 -3 15 -14 2 -11 15 -25 29 -32 13 -7 26 -21 30 -32 3 -10 9 -18
14 -18 4 0 10 -9 13 -20 3 -13 11 -18 20 -14 10 3 17 -3 21 -20 3 -14 18 -30
35 -37 20 -9 37 -29 52 -64 13 -27 33 -62 45 -77 12 -15 32 -50 45 -78 12 -27
26 -50 30 -50 4 0 17 -26 29 -57 12 -32 28 -71 35 -88 38 -84 80 -205 86 -245
41 -254 41 -263 41 -654 0 -360 10 -547 32 -636 4 -14 7 -39 7 -55 l1 -30 177
0 176 0 3 35 c1 19 6 42 10 50 3 8 7 49 7 91 0 58 4 79 18 93 21 21 22 46 3
46 -10 0 -13 8 -9 28 19 105 24 461 18 1220 -6 705 -10 842 -21 842 -11 0 -14
-37 -15 -197 -1 -189 -2 -195 -14 -133 l-13 65 -1 -75 c-1 -41 -6 -82 -12 -90
-8 -11 -9 0 -6 42 3 32 1 60 -4 63 -5 4 -9 -19 -9 -52 0 -63 -8 -103 -20 -103
-4 0 -13 21 -20 46 -10 36 -11 51 -2 65 16 25 15 30 -3 23 -10 -4 -20 5 -30
30 -17 41 -20 76 -5 76 6 0 10 -5 10 -11 0 -6 8 -1 18 11 22 27 42 20 36 -13
-4 -20 -4 -21 5 -2 8 17 10 13 10 -19 1 -22 4 -37 7 -34 3 4 2 39 -2 79 -4 46
-10 66 -14 55 -10 -31 -18 -7 -21 73 -4 72 -3 74 20 76 21 2 23 -1 18 -34 -2
-20 -1 -45 4 -56 5 -13 8 4 8 48 l1 67 -476 0 -477 0 6 -56z m827 -22 c0 -7
-4 -10 -10 -7 -5 3 -10 16 -10 28 0 18 2 19 10 7 5 -8 10 -21 10 -28z m157
-369 c-3 -10 -5 -2 -5 17 0 19 2 27 5 18 2 -10 2 -26 0 -35z m-27 -55 c0 -19
-2 -20 -10 -8 -13 19 -13 30 0 30 6 0 10 -10 10 -22z m27 -105 c-2 -21 -4 -6
-4 32 0 39 2 55 4 38 2 -18 2 -50 0 -70z m-87 57 c0 -5 -5 -10 -11 -10 -5 0
-7 5 -4 10 3 6 8 10 11 10 2 0 4 -4 4 -10z m24 -121 c-8 -8 -14 -23 -14 -32 0
-9 -6 -17 -14 -17 -11 0 -13 9 -9 34 3 19 1 36 -6 40 -6 4 -11 12 -11 18 0 7
4 7 13 -1 10 -8 17 -7 25 1 18 18 15 38 -4 31 -12 -4 -15 -2 -12 8 3 8 11 13
17 12 6 -2 12 3 12 10 1 6 5 -10 9 -38 5 -36 4 -54 -6 -66z m27 -56 c-9 -15
-10 -12 -10 17 0 29 1 32 10 18 7 -12 7 -24 0 -35z m-46 -52 c-3 -12 -11 -21
-16 -21 -10 0 -12 43 -2 54 12 12 25 -11 18 -33z m63 -1373 c2 -29 1 -50 -3
-46 -4 4 -7 23 -7 42 0 20 -3 34 -8 31 -4 -2 -7 7 -7 21 0 46 20 8 25 -48z"/>
<path d="M4521 5043 c1 -114 14 -128 15 -18 1 52 -3 95 -7 95 -5 0 -9 -35 -8
-77z"/>
<path d="M4945 4953 c-4 -93 -4 -285 0 -428 4 -143 10 -597 14 -1010 l6 -750
35 -6 35 -6 -32 -2 c-17 0 -35 -5 -38 -11 -4 -6 23 -10 74 -10 47 0 81 4 81
10 0 6 -4 10 -9 10 -4 0 -5 19 0 43 4 23 8 136 9 250 l0 208 -22 -7 c-31 -9
-34 -12 -20 -26 14 -14 16 -32 3 -24 -11 7 -21 -28 -21 -81 0 -58 -18 -54 -23
5 -3 39 -4 36 -5 -18 -1 -89 -1 -90 -12 -90 -6 0 -10 59 -9 158 1 86 4 146 8
132 7 -25 8 -24 15 8 6 27 12 32 37 32 22 0 29 -4 27 -16 -2 -10 3 -19 10 -21
9 -4 12 42 12 206 0 116 -2 211 -5 211 -2 0 -13 -10 -24 -21 -14 -16 -18 -30
-14 -50 5 -24 2 -29 -15 -29 -11 0 -23 6 -26 13 -3 6 -3 -6 1 -28 4 -22 6 -62
5 -89 -2 -26 2 -54 9 -62 8 -10 8 -14 0 -14 -6 0 -11 -10 -11 -23 0 -14 -6
-24 -14 -24 -12 0 -14 63 -16 381 -4 590 -3 626 22 626 6 0 7 -11 3 -27 -4
-16 -3 -24 1 -20 4 4 13 -2 20 -14 10 -20 12 -18 18 23 8 50 -4 92 -29 102
-25 9 -35 -1 -35 -36 0 -17 -2 -29 -4 -27 -3 3 -8 153 -11 334 -6 350 -9 385
-30 385 -10 0 -15 -40 -20 -167z m145 -1503 c0 -5 -5 -10 -11 -10 -5 0 -7 5
-4 10 3 6 8 10 11 10 2 0 4 -4 4 -10z m-23 -666 c-3 -3 -12 -4 -19 -1 -8 3 -5
6 6 6 11 1 17 -2 13 -5z m16 -31 c-7 -2 -21 -2 -30 0 -10 3 -4 5 12 5 17 0 24
-2 18 -5z"/>
<path d="M5041 5104 c0 -11 3 -14 6 -6 3 7 2 16 -1 19 -3 4 -6 -2 -5 -13z"/>
<path d="M5091 5026 c-13 -54 -14 -66 -2 -66 13 0 32 93 22 103 -5 5 -13 -12
-20 -37z"/>
<path d="M2500 5037 c-36 -12 -110 -52 -165 -88 -55 -36 -106 -68 -112 -70
-24 -8 -179 -144 -226 -198 -48 -57 -117 -180 -117 -210 0 -9 13 12 30 47 40
85 104 166 192 244 77 67 142 118 153 118 3 0 32 16 63 37 119 76 152 92 238
113 49 12 91 24 93 26 15 14 -95 0 -149 -19z"/>
<path d="M5032 4993 c-1 -18 -6 -33 -12 -33 -5 0 -10 -12 -10 -26 0 -14 4 -23
9 -20 10 7 21 -28 20 -64 l-1 -25 -9 25 c-5 16 -7 -17 -6 -92 2 -65 0 -118 -5
-118 -4 0 -8 -11 -8 -25 0 -14 6 -25 13 -25 9 0 9 -2 -1 -9 -10 -6 -12 -21 -7
-55 6 -39 11 -46 30 -46 20 0 23 6 27 47 2 26 0 78 -3 117 -6 57 -4 74 8 86
12 11 17 12 20 3 10 -27 23 -11 23 26 0 30 -4 38 -17 37 -13 -1 -20 13 -29 58
-6 32 -16 61 -22 65 -6 3 -12 29 -15 56 -2 31 -4 38 -5 18z"/>
<path d="M3500 4884 c30 -32 70 -77 88 -99 21 -26 29 -31 21 -15 -6 14 -18 33
-27 43 -21 24 1 22 23 -3 10 -11 23 -20 28 -20 14 0 -22 38 -59 64 -18 11 -54
36 -80 55 l-49 34 55 -59z"/>
<path d="M1970 4726 c0 -9 5 -16 10 -16 6 0 10 4 10 9 0 6 -4 13 -10 16 -5 3
-10 -1 -10 -9z"/>
<path d="M3670 4730 c0 -8 11 -25 24 -39 14 -15 46 -64 71 -111 26 -47 44 -76
40 -65 -4 11 -11 31 -15 45 -4 14 -16 43 -25 65 l-17 40 30 -28 c69 -65 221
-404 258 -574 32 -148 43 -442 25 -666 -9 -109 -9 -173 -1 -254 15 -141 39
-283 51 -303 8 -11 9 -9 4 10 -20 83 -35 283 -33 430 9 592 1 716 -58 898 -62
188 -237 512 -274 504 -7 -2 -28 12 -47 29 -19 20 -33 27 -33 19z"/>
<path d="M2712 4660 c0 -14 2 -19 5 -12 2 6 2 18 0 25 -3 6 -5 1 -5 -13z"/>
<path d="M2942 4623 c14 -34 35 -58 23 -28 -4 11 -10 28 -12 38 -3 9 -9 17
-14 17 -5 0 -3 -12 3 -27z"/>
<path d="M2971 4566 c-2 -15 40 -148 45 -143 2 2 -6 37 -20 78 -13 41 -24 70
-25 65z"/>
<path d="M5108 4506 c-3 -14 -1 -31 3 -38 6 -8 9 1 9 25 0 42 -6 48 -12 13z"/>
<path d="M2357 4485 c-9 -13 -21 -36 -27 -52 -8 -24 -8 -25 3 -9 6 10 22 34
34 52 25 39 17 46 -10 9z"/>
<path d="M3105 4490 c3 -14 12 -55 20 -92 16 -74 55 -389 55 -446 0 -19 3 -32
6 -29 10 10 -16 311 -36 417 -10 52 -26 113 -35 135 -8 22 -13 29 -10 15z"/>
<path d="M3766 4477 c3 -10 9 -15 12 -12 3 3 0 11 -7 18 -10 9 -11 8 -5 -6z"/>
<path d="M2191 4376 c-2 -44 75 -398 110 -510 40 -130 126 -298 184 -361 51
-55 50 -45 -2 27 -44 61 -124 231 -161 343 -32 98 -96 348 -117 460 -7 39 -13
57 -14 41z"/>
<path d="M3765 4365 c3 -21 13 -51 20 -65 18 -35 94 -290 110 -370 7 -36 14
-53 14 -38 2 54 -122 486 -145 507 -4 3 -3 -12 1 -34z"/>
<path d="M3452 4350 c0 -14 2 -19 5 -12 2 6 2 18 0 25 -3 6 -5 1 -5 -13z"/>
<path d="M3465 4280 c10 -64 42 -190 50 -198 4 -4 5 2 2 13 -4 11 -16 65 -28
120 -22 105 -36 142 -24 65z"/>
<path d="M5030 4310 c0 -5 5 -10 10 -10 6 0 10 5 10 10 0 6 -4 10 -10 10 -5 0
-10 -4 -10 -10z"/>
<path d="M5075 4280 c-3 -5 -12 -7 -19 -4 -16 6 -32 -63 -21 -96 10 -32 24
-24 31 18 4 26 13 41 27 48 29 12 35 44 8 44 -11 0 -22 -4 -26 -10z"/>
<path d="M3715 4200 c12 -204 27 -469 29 -512 4 -80 16 -66 16 16 0 84 -37
554 -45 571 -3 6 -3 -28 0 -75z"/>
<path d="M3041 4180 c-2 -78 27 -289 63 -464 33 -158 46 -204 46 -161 0 11
-18 111 -41 224 -22 113 -46 260 -53 326 -8 66 -14 100 -15 75z"/>
<path d="M2101 4175 c-1 -16 6 -64 14 -105 8 -41 20 -100 26 -130 18 -94 48
-194 88 -293 l39 -95 -62 4 c-60 3 -60 3 -24 -9 20 -7 43 -18 50 -25 9 -9 6
-12 -17 -11 -17 0 -52 6 -78 12 l-48 12 -40 93 c-57 134 -89 273 -96 420 -3
67 -10 125 -14 128 -24 14 3 -244 41 -402 16 -66 40 -142 54 -169 14 -26 26
-50 26 -52 0 -2 -14 -3 -31 -1 -26 2 -34 10 -47 43 -18 46 -20 50 -27 43 -3
-3 2 -22 10 -42 19 -44 9 -71 -12 -32 -7 14 -15 43 -18 64 -2 20 -15 78 -29
127 -15 50 -30 124 -36 165 l-9 75 4 -100 c3 -55 12 -134 20 -175 15 -74 31
-158 40 -212 2 -16 0 -28 -5 -28 -9 0 -23 57 -40 165 l-9 60 4 -75 c5 -113 98
-402 149 -465 9 -11 3 9 -13 45 -15 36 -37 97 -48 135 -45 152 -40 164 12 37
35 -86 150 -311 167 -327 7 -7 9 -1 4 20 -6 25 -17 51 -64 149 -3 5 0 6 5 3
14 -9 83 -150 83 -170 0 -9 -4 -19 -10 -22 -17 -11 -12 -38 22 -108 l33 -67
155 6 c229 9 470 -20 470 -57 0 -12 0 -12 -51 6 -91 32 -433 43 -619 19 l-45
-6 0 60 c0 51 -4 65 -26 89 -32 35 -73 102 -66 109 3 3 24 -23 48 -58 46 -68
62 -84 68 -67 2 6 -1 14 -6 18 -19 11 -102 149 -95 156 4 4 1 5 -7 3 -17 -4
-86 92 -135 187 -19 39 -35 63 -35 55 -1 -28 45 -125 96 -205 29 -43 49 -83
46 -88 -3 -5 -12 2 -21 14 -14 20 -16 20 -27 5 -11 -15 -14 -14 -37 3 l-25 20
19 -57 c31 -98 66 -257 51 -236 -19 26 -16 3 7 -52 11 -26 18 -49 15 -52 -10
-10 -95 82 -107 115 -7 18 -15 33 -18 33 -3 0 -7 -37 -8 -82 -1 -66 1 -83 16
-94 16 -12 15 -13 -5 -14 -31 0 -33 -8 -17 -75 7 -33 14 -84 14 -114 0 -29 9
-117 21 -195 16 -108 20 -174 17 -281 -2 -77 -8 -148 -13 -159 -6 -14 -5 -18
6 -14 7 2 17 20 22 39 13 54 12 286 -2 374 -19 118 -38 326 -30 331 4 2 12 -3
19 -11 7 -8 16 -15 21 -15 5 0 0 9 -12 21 -12 12 -18 27 -14 36 3 9 0 20 -6
24 -8 4 -4 9 10 14 27 8 30 71 4 91 -10 7 -15 15 -12 19 4 3 22 -10 42 -30 19
-19 45 -35 57 -35 11 0 19 4 16 9 -3 5 7 21 22 36 18 19 23 29 14 32 -7 3 -17
14 -23 25 -10 18 -9 20 6 14 10 -3 24 -1 31 5 7 6 18 8 24 4 7 -5 5 -12 -7
-21 -15 -11 -12 -12 22 -1 27 7 133 11 320 11 232 0 290 -3 340 -17 32 -9 71
-17 85 -17 23 1 21 5 -30 50 -66 60 -150 106 -174 97 -9 -4 -15 -11 -11 -16 3
-6 12 -8 19 -5 12 5 101 -35 94 -41 -7 -6 -285 14 -313 23 -21 6 -51 4 -105
-9 -41 -9 -79 -15 -83 -12 -5 3 -22 33 -38 67 -25 50 -29 69 -24 107 6 42 2
55 -46 145 -54 104 -120 269 -111 279 3 3 25 5 49 5 39 0 43 -2 43 -25 0 -46
48 -177 76 -206 23 -24 36 -29 76 -29 27 0 48 5 48 10 0 6 -9 28 -20 50 -23
44 -26 65 -8 54 8 -5 9 -2 4 12 -4 10 -10 33 -12 49 -3 17 -8 41 -10 54 -4 20
-2 23 15 18 31 -8 26 6 -9 27 -17 9 -28 22 -25 27 9 13 33 11 42 -3 10 -15 53
-41 59 -35 7 6 -71 224 -117 328 -62 140 -89 215 -115 309 -14 54 -23 74 -23
55z m229 -649 c0 -29 -35 20 -69 96 -29 62 -91 263 -91 289 1 20 159 -363 160
-385z m-275 -239 c8 -12 15 -26 15 -31 0 -40 -72 126 -84 194 -3 19 7 -5 24
-53 16 -49 37 -98 45 -110z m-31 -232 c3 -8 1 -15 -4 -15 -6 0 -10 7 -10 15 0
8 2 15 4 15 2 0 6 -7 10 -15z"/>
<path d="M3881 4139 c-1 -9 8 -61 19 -115 12 -55 20 -117 19 -139 -1 -22 -1
-74 1 -115 2 -68 3 -71 11 -35 14 68 10 159 -11 270 -21 107 -38 165 -39 134z"/>
<path d="M5022 4100 c0 -19 2 -27 5 -17 2 9 2 25 0 35 -3 9 -5 1 -5 -18z"/>
<path d="M3144 4015 c3 -55 10 -188 16 -295 6 -107 15 -251 21 -320 7 -69 10
-142 7 -162 -2 -20 -1 -35 2 -33 9 6 30 -160 30 -236 0 -35 5 -116 11 -179 9
-102 18 -150 45 -239 5 -18 4 -22 -5 -17 -14 9 14 -63 31 -79 11 -10 10 -3 -9
57 -4 14 -3 19 5 14 7 -4 6 6 -3 28 -23 55 -44 193 -50 337 -3 74 -13 175 -20
224 -20 122 -34 295 -46 532 -13 282 -26 453 -34 461 -4 4 -4 -38 -1 -93z"/>
<path d="M2553 4083 c26 -2 68 -2 95 0 26 2 4 3 -48 3 -52 0 -74 -1 -47 -3z"/>
<path d="M2478 4073 c7 -3 16 -2 19 1 4 3 -2 6 -13 5 -11 0 -14 -3 -6 -6z"/>
<path d="M2368 4053 c6 -2 18 -2 25 0 6 3 1 5 -13 5 -14 0 -19 -2 -12 -5z"/>
<path d="M3501 4044 c0 -11 3 -14 6 -6 3 7 2 16 -1 19 -3 4 -6 -2 -5 -13z"/>
<path d="M3516 4010 c-3 -25 -2 -61 3 -80 9 -30 9 -26 6 25 -3 42 -2 53 4 35
7 -20 9 -21 9 -5 0 11 -3 31 -7 45 -7 22 -9 20 -15 -20z"/>
<path d="M1805 3840 c3 -156 8 -226 23 -293 11 -48 22 -91 26 -94 10 -10 7 7
-15 113 -13 64 -23 166 -29 289 l-8 190 3 -205z"/>
<path d="M2995 3955 c30 -25 59 -39 51 -26 -4 6 -22 18 -39 27 -30 14 -31 14
-12 -1z"/>
<path d="M5040 3959 c0 -5 5 -7 10 -4 6 3 10 8 10 11 0 2 -4 4 -10 4 -5 0 -10
-5 -10 -11z"/>
<path d="M3542 3935 c0 -16 2 -22 5 -12 2 9 2 23 0 30 -3 6 -5 -1 -5 -18z"/>
<path d="M5022 3900 c0 -14 2 -19 5 -12 2 6 2 18 0 25 -3 6 -5 1 -5 -13z"/>
<path d="M3604 3856 c-35 -7 -73 -27 -117 -61 -37 -27 -67 -54 -67 -59 0 -5
-6 -17 -14 -25 -17 -19 -44 -98 -56 -162 -11 -58 4 -167 29 -217 10 -20 43
-66 71 -102 103 -127 149 -219 151 -299 0 -27 2 -31 8 -17 11 30 -6 120 -41
208 -17 43 -33 77 -35 74 -2 -2 3 -20 11 -40 22 -52 11 -44 -17 12 -19 37 -26
70 -31 162 -7 117 0 133 23 52 20 -72 101 -233 101 -202 0 8 36 -21 80 -65 44
-44 80 -77 80 -73 0 3 -39 48 -87 98 -48 51 -98 109 -110 129 -34 57 -83 212
-85 267 -1 44 -2 42 -8 -21 -4 -38 -8 -106 -9 -150 -1 -63 -4 -76 -12 -61 -18
30 -23 177 -9 250 14 74 8 100 -9 39 -22 -75 -24 -175 -7 -250 21 -95 21 -95
-14 -43 -47 71 -63 131 -58 219 8 128 61 222 157 278 36 21 143 58 146 50 0
-1 6 -17 12 -35 7 -20 12 -110 13 -234 0 -111 3 -204 5 -207 3 -2 6 67 7 155
1 87 3 182 4 209 3 52 -28 136 -50 134 -6 -1 -34 -6 -62 -13z"/>
<path d="M2014 3836 c11 -9 24 -16 30 -16 12 0 7 5 -24 19 -24 11 -24 11 -6
-3z"/>
<path d="M4026 3793 c-15 -82 -20 -160 -21 -373 0 -129 -4 -271 -7 -315 -4
-44 -5 -66 -2 -50 2 17 10 57 16 90 7 36 13 159 13 305 1 135 5 273 9 308 8
62 2 87 -8 35z"/>
<path d="M3831 3794 c0 -11 3 -14 6 -6 3 7 2 16 -1 19 -3 4 -6 -2 -5 -13z"/>
<path d="M2138 3682 c15 -46 28 -79 30 -73 5 14 -27 115 -43 137 -8 11 -3 -16
13 -64z"/>
<path d="M3561 3739 c-3 -76 69 -358 135 -532 47 -122 35 -65 -27 139 -34 109
-72 249 -84 309 -13 61 -23 98 -24 84z"/>
<path d="M3844 3520 c0 -135 2 -190 3 -122 2 67 2 177 0 245 -1 67 -3 12 -3
-123z"/>
<path d="M3947 3451 c-4 -85 -15 -189 -23 -230 -18 -91 -45 -181 -54 -181 -4
0 -11 15 -17 33 -5 17 -7 21 -5 7 3 -14 6 -45 7 -70 2 -33 7 -46 20 -48 11 -3
15 0 11 7 -4 6 6 52 23 103 16 51 34 120 39 153 15 85 22 271 13 330 -5 40 -8
19 -14 -104z"/>
<path d="M2108 3563 c6 -2 18 -2 25 0 6 3 1 5 -13 5 -14 0 -19 -2 -12 -5z"/>
<path d="M3731 3458 c-1 -45 36 -214 56 -248 l14 -25 -6 25 c-4 14 -16 57 -27
95 -10 39 -23 97 -27 130 -6 45 -9 51 -10 23z"/>
<path d="M3691 3344 c0 -11 3 -14 6 -6 3 7 2 16 -1 19 -3 4 -6 -2 -5 -13z"/>
<path d="M2322 3276 c20 -41 21 -51 10 -90 -11 -42 -6 -116 8 -116 4 0 7 21 7
48 0 26 4 60 8 75 6 21 2 40 -16 73 -30 60 -46 68 -17 10z"/>
<path d="M1711 3225 c0 -16 4 -37 9 -45 8 -12 10 -10 9 10 0 14 -4 34 -9 45
-7 17 -9 16 -9 -10z"/>
<path d="M3173 3130 c0 -25 2 -35 4 -22 2 12 2 32 0 45 -2 12 -4 2 -4 -23z"/>
<path d="M1901 3074 c0 -11 3 -14 6 -6 3 7 2 16 -1 19 -3 4 -6 -2 -5 -13z"/>
<path d="M3163 3005 c0 -44 2 -61 4 -37 2 23 2 59 0 80 -2 20 -4 1 -4 -43z"/>
<path d="M3310 3061 c0 -40 58 -272 95 -381 42 -125 38 -76 -6 60 -16 52 -41
149 -55 215 -26 122 -34 147 -34 106z"/>
<path d="M1912 3030 c0 -14 2 -19 5 -12 2 6 2 18 0 25 -3 6 -5 1 -5 -13z"/>
<path d="M3814 3011 c20 -22 26 -25 26 -13 0 4 -10 13 -22 21 -23 14 -23 14
-4 -8z"/>
<path d="M3976 2989 c-8 -42 0 -50 9 -9 4 17 5 34 2 36 -2 3 -7 -10 -11 -27z"/>
<path d="M3690 3001 c0 -6 4 -13 10 -16 6 -3 7 1 4 9 -7 18 -14 21 -14 7z"/>
<path d="M1922 2975 c0 -16 2 -22 5 -12 2 9 2 23 0 30 -3 6 -5 -1 -5 -18z"/>
<path d="M2340 2986 c0 -3 20 -11 45 -17 42 -11 71 -29 45 -29 -6 0 -8 -5 -5
-10 9 -15 67 -8 61 7 -3 7 -1 13 4 13 19 0 10 18 -12 23 -43 10 -138 19 -138
13z"/>
<path d="M3555 2965 c8 -43 26 -85 36 -85 5 0 5 8 -1 18 -6 9 -17 35 -25 57
-12 31 -14 33 -10 10z"/>
<path d="M3900 2946 c0 -2 8 -10 18 -17 15 -13 16 -12 3 4 -13 16 -21 21 -21
13z"/>
<path d="M1931 2924 c0 -11 3 -14 6 -6 3 7 2 16 -1 19 -3 4 -6 -2 -5 -13z"/>
<path d="M3740 2933 c0 -6 8 -17 18 -24 16 -13 16 -13 2 6 -8 11 -16 22 -17
24 -2 2 -3 0 -3 -6z"/>
<path d="M3175 2850 c3 -36 12 -90 20 -120 16 -60 14 -41 -11 105 l-14 80 5
-65z"/>
<path d="M2160 2885 c0 -8 4 -15 10 -15 5 0 7 7 4 15 -4 8 -8 15 -10 15 -2 0
-4 -7 -4 -15z"/>
<path d="M4001 2468 c-1 -4 4 -19 10 -35 6 -15 14 -48 19 -73 l8 -45 1 40 c0
32 -35 138 -38 113z"/>
<path d="M2287 2404 c-14 -14 -7 -43 14 -54 25 -14 49 -6 49 16 0 13 7 15 38
10 20 -3 58 -8 85 -11 26 -3 57 -9 70 -14 12 -4 28 -6 35 -4 6 3 12 0 12 -6 0
-6 -5 -11 -12 -11 -6 0 -8 -3 -5 -6 4 -4 18 1 32 10 20 13 30 15 40 6 11 -9
12 -7 8 9 -4 16 -9 18 -30 10 -20 -7 -28 -5 -43 13 -17 21 -27 23 -132 25 -62
1 -122 5 -133 8 -11 3 -24 3 -28 -1z"/>
<path d="M4151 2384 c0 -11 3 -14 6 -6 3 7 2 16 -1 19 -3 4 -6 -2 -5 -13z"/>
<path d="M1760 2377 c0 -9 20 -63 44 -120 24 -56 49 -120 56 -142 7 -22 19
-49 26 -60 26 -37 15 9 -25 106 -72 172 -100 234 -101 216z"/>
<path d="M2170 2369 c0 -4 7 -22 15 -40 8 -19 14 -27 14 -19 0 14 -28 72 -29
59z"/>
<path d="M3860 2340 c-19 -11 -31 -19 -27 -20 11 0 67 29 67 35 0 7 -1 7 -40
-15z"/>
<path d="M4165 2334 c10 -77 27 -337 23 -359 -3 -15 -1 -22 5 -18 14 9 1 286
-18 353 -8 30 -13 41 -10 24z"/>
<path d="M2317 2296 c-3 -8 1 -20 10 -28 21 -17 55 -98 48 -116 -7 -18 5 -62
16 -62 5 0 9 16 9 36 0 20 8 48 18 62 10 15 21 35 25 44 4 11 13 15 29 10 20
-5 21 -4 9 11 -7 9 -29 19 -50 23 -20 4 -40 10 -46 14 -23 16 -63 20 -68 6z"/>
<path d="M2202 2270 c0 -14 2 -19 5 -12 2 6 2 18 0 25 -3 6 -5 1 -5 -13z"/>
<path d="M4032 2180 c-8 -52 -34 -192 -59 -310 -39 -188 -46 -236 -50 -377 -5
-165 3 -237 18 -158 4 22 4 56 0 75 -12 57 6 234 44 431 59 306 66 349 63 393
-2 32 -6 20 -16 -54z"/>
<path d="M20 2080 l-25 -6 28 -6 c15 -3 30 -2 32 3 8 12 -8 16 -35 9z"/>
<path d="M82 2078 c5 -15 28 -18 29 -3 0 6 -7 12 -17 13 -10 3 -15 -1 -12 -10z"/>
<path d="M1223 2073 c32 -2 81 -2 110 0 29 2 3 3 -58 3 -60 0 -84 -1 -52 -3z"/>
<path d="M1508 2072 c-89 -5 -71 -24 20 -22 42 1 116 2 165 1 l87 -1 1 -47 c1
-80 17 -98 18 -20 1 45 5 67 13 67 8 0 8 3 3 9 -10 10 -207 18 -307 13z"/>
<path d="M4830 2060 l-55 -7 55 0 c30 -1 82 3 115 7 l60 7 -60 0 c-33 0 -85
-3 -115 -7z"/>
<path d="M1573 2019 c4 -13 7 -45 7 -71 0 -27 5 -48 11 -48 17 0 7 132 -10
138 -10 3 -12 -1 -8 -19z"/>
<path d="M1616 2031 c-4 -7 -5 -15 -2 -18 9 -9 19 4 14 18 -4 11 -6 11 -12 0z"/>
<path d="M2240 2010 c0 -6 17 -10 37 -10 43 0 41 5 -4 13 -19 4 -33 2 -33 -3z"/>
<path d="M2330 1999 c0 -5 5 -7 10 -4 6 3 10 8 10 11 0 2 -4 4 -10 4 -5 0 -10
-5 -10 -11z"/>
<path d="M2360 1995 c0 -8 5 -15 10 -15 6 0 10 7 10 15 0 8 -4 15 -10 15 -5 0
-10 -7 -10 -15z"/>
<path d="M1675 1990 c4 -6 11 -8 16 -5 14 9 11 15 -7 15 -8 0 -12 -5 -9 -10z"/>
<path d="M4096 1975 c-43 -170 -81 -305 -105 -378 -38 -113 -23 -104 19 11 29
79 41 121 86 306 8 32 13 66 11 75 -2 10 -7 5 -11 -14z"/>
<path d="M1687 1938 c-3 -13 -9 -33 -12 -45 -6 -17 -3 -23 9 -23 12 0 16 10
16 45 0 49 -5 57 -13 23z"/>
<path d="M4112 1910 c0 -14 2 -19 5 -12 2 6 2 18 0 25 -3 6 -5 1 -5 -13z"/>
<path d="M4985 1860 c-10 -63 -10 -64 -42 -66 -33 -2 -33 -1 -28 40 l5 41 -11
-35 c-6 -19 -13 -41 -15 -48 -2 -8 -12 -12 -21 -10 -14 2 -18 14 -19 46 0 23
-3 44 -5 47 -3 2 -16 -32 -29 -77 l-25 -81 -80 7 c-44 3 -95 6 -112 6 -23 0
-33 5 -33 15 0 8 -4 15 -10 15 -10 0 -12 -5 -14 -32 -1 -9 28 -16 89 -23 l90
-10 -3 -30 c-5 -39 -8 -42 -32 -20 -15 14 -23 15 -34 6 -11 -10 -17 -8 -28 8
-10 14 -18 17 -28 10 -8 -5 -27 -9 -42 -9 l-28 0 0 -299 0 -299 33 -5 c17 -4
56 -10 85 -15 l54 -9 -3 161 c-3 153 11 350 30 426 5 21 9 -144 9 -425 1 -319
4 -459 11 -458 7 2 11 -14 11 -37 0 -39 -15 -56 -22 -23 -3 15 -5 15 -22 -2
-15 -16 -42 -20 -150 -27 -72 -5 -143 -10 -158 -11 -15 -1 -33 -8 -40 -15 -9
-9 -3 -12 31 -12 35 0 42 -3 39 -17 -2 -12 -16 -20 -43 -24 l-40 -5 38 -8 c55
-12 45 -26 -20 -26 -76 0 -63 -9 23 -16 38 -3 113 -12 166 -20 64 -9 179 -14
328 -14 223 0 230 1 230 20 0 16 -7 20 -31 20 -17 0 -28 4 -24 10 3 6 -4 10
-17 10 -42 0 -51 14 -25 38 20 19 28 21 51 12 34 -13 46 -13 46 0 0 5 -3 9 -7
8 -5 -1 -23 1 -41 5 -46 9 -37 33 11 29 22 -2 37 1 37 7 0 7 -25 11 -65 11
-59 0 -65 2 -69 23 -3 12 -7 157 -10 322 -4 165 -8 392 -10 505 -3 134 -2 179
4 130 4 -41 11 -196 16 -345 7 -231 10 -256 15 -175 4 52 3 207 -2 344 -7 198
-7 251 3 258 25 16 30 7 24 -39 -3 -27 -6 -205 -7 -397 -1 -281 2 -350 13
-357 26 -16 29 46 22 426 l-6 380 33 15 c33 14 34 17 37 78 3 56 -8 82 -21 50
-3 -7 -6 -2 -6 12 -2 38 -21 3 -21 -37 0 -26 -4 -33 -19 -33 -11 0 -26 -3 -35
-6 -12 -5 -16 6 -18 58 l-3 63 -10 -65z m-84 -362 c1 -123 5 -205 8 -183 5 32
8 20 14 -60 9 -123 9 -352 1 -394 -7 -33 -24 -33 -24 0 0 10 -4 19 -9 19 -5 0
-12 -52 -16 -115 -4 -66 -11 -115 -17 -115 -7 0 -8 62 -4 183 3 100 8 328 11
507 6 330 9 380 26 380 5 0 10 -95 10 -222z m-99 -328 c2 -283 1 -486 -2 -450
-6 69 -11 992 -5 975 2 -5 5 -242 7 -525z m45 -142 c-2 -13 -4 -3 -4 22 0 25
2 35 4 23 2 -13 2 -33 0 -45z m103 -375 c-10 -16 -11 -15 -6 7 3 14 6 34 7 45
1 13 3 11 6 -7 2 -15 -1 -35 -7 -45z m-153 -37 c3 -3 0 -12 -7 -21 -10 -12
-16 -13 -26 -4 -11 9 -14 7 -14 -10 0 -20 -4 -21 -146 -21 l-145 0 3 27 c2 22
10 30 33 35 33 8 294 3 302 -6z m144 -59 c-13 -13 -26 -3 -16 12 3 6 11 8 17
5 6 -4 6 -10 -1 -17z m-323 -34 c-10 -2 -28 -2 -40 0 -13 2 -5 4 17 4 22 1 32
-1 23 -4z m328 0 c-12 -12 -293 -16 -300 -4 -5 8 39 11 150 11 87 0 154 -3
150 -7z m72 -4 c-18 -7 -33 -7 -45 0 -14 8 -9 10 27 10 42 -1 43 -1 18 -10z"/>
<path d="M4193 1780 c0 -25 2 -35 4 -22 2 12 2 32 0 45 -2 12 -4 2 -4 -23z"/>
<path d="M4669 1749 c-10 -6 -5 -9 16 -10 17 -1 40 -3 53 -4 12 -1 25 2 28 6
3 5 -1 9 -8 10 -7 1 -27 2 -44 4 -18 1 -38 -1 -45 -6z"/>
<path d="M1116 1733 c-4 -4 27 -12 70 -18 l77 -10 3 -230 c3 -331 14 -708 21
-715 3 -3 4 214 2 482 l-4 488 -60 0 c-33 0 -69 3 -80 6 -11 3 -24 2 -29 -3z"/>
<path d="M5105 1661 c-9 -15 -6 -418 4 -486 5 -41 8 28 8 218 0 152 -1 277 -3
277 -1 0 -5 -4 -9 -9z"/>
<path d="M1123 1643 c-6 -14 14 -610 23 -706 l6 -58 41 3 42 3 0 380 -1 380
-53 5 c-39 4 -55 2 -58 -7z m77 -669 c0 -14 -4 -23 -10 -19 -5 3 -10 15 -10
26 0 10 5 19 10 19 6 0 10 -12 10 -26z"/>
<path d="M1104 1400 c0 -135 2 -190 3 -122 2 67 2 177 0 245 -1 67 -3 12 -3
-123z"/>
<path d="M2217 1593 c-25 -44 -97 -316 -97 -366 0 -31 18 16 30 78 7 39 28
119 47 178 19 60 32 111 30 114 -3 2 -7 1 -10 -4z"/>
<path d="M0 1544 c0 -15 8 -23 25 -26 28 -6 34 9 7 19 -9 4 -20 11 -24 17 -5
6 -8 2 -8 -10z"/>
<path d="M1912 1520 c-10 -16 -16 -18 -39 -9 -20 7 -28 7 -35 -3 -9 -16 -12
-96 -9 -283 2 -169 9 -235 24 -235 15 0 39 15 38 24 -1 3 -1 23 0 44 1 33 2
34 9 12 4 -14 8 -40 9 -57 1 -28 -3 -33 -21 -33 -35 0 -68 -11 -68 -22 0 -6
19 -7 50 -3 l50 7 0 -34 c0 -19 -5 -39 -11 -45 -7 -7 -6 -12 5 -16 13 -5 15
36 15 334 1 186 0 339 -2 339 -1 0 -8 -9 -15 -20z m-55 -512 c-3 -8 -6 -5 -6
6 -1 11 2 17 5 13 3 -3 4 -12 1 -19z"/>
<path d="M291 1468 c-21 -9 -78 -22 -127 -28 -104 -13 -124 -18 -124 -32 0 -6
9 -7 22 -3 13 4 68 13 123 20 55 7 117 20 138 29 21 9 48 14 59 10 14 -4 19
-2 16 7 -6 18 -65 17 -107 -3z"/>
<path d="M646 1481 c-3 -5 15 -11 42 -13 51 -5 65 -2 57 13 -8 12 -92 12 -99
0z"/>
<path d="M360 1395 c0 -17 -12 -19 -26 -5 -16 16 -52 -1 -64 -31 -7 -15 -18
-34 -26 -40 -15 -13 -20 -44 -5 -34 5 3 17 -2 25 -11 11 -10 23 -13 34 -8 9 4
23 6 30 5 18 -3 80 27 105 49 18 18 18 19 -3 40 -14 14 -28 19 -42 14 -14 -4
-18 -2 -14 5 4 6 18 11 32 11 38 0 28 17 -11 18 -25 1 -35 -3 -35 -13z"/>
<path d="M2476 1316 c-4 -54 -4 -137 -1 -184 10 -128 11 -202 3 -202 -5 0 -8
15 -8 33 -1 75 -13 183 -22 192 -6 6 -8 -37 -6 -117 1 -71 6 -128 11 -128 4 0
5 -11 1 -24 -3 -14 -3 -34 1 -45 5 -17 12 -20 33 -15 37 9 43 14 36 25 -8 13
-18 194 -19 324 0 96 1 100 23 103 30 4 28 30 -3 42 -16 6 -25 18 -26 32 0 13
-4 32 -8 43 -5 13 -10 -15 -15 -79z m14 -450 c0 -8 -4 -18 -10 -21 -5 -3 -10
3 -10 14 0 12 5 21 10 21 6 0 10 -6 10 -14z"/>
<path d="M510 1390 c0 -5 5 -10 10 -10 6 0 10 5 10 10 0 6 -4 10 -10 10 -5 0
-10 -4 -10 -10z"/>
<path d="M633 1352 l-32 -3 25 -47 c43 -81 57 -101 76 -102 3 0 8 34 10 75 2
52 -1 75 -9 75 -7 0 -9 -13 -6 -39 3 -21 0 -47 -6 -57 -9 -16 -11 -13 -12 21
-5 88 -1 81 -46 77z"/>
<path d="M78 1299 c6 -14 13 -52 17 -85 7 -62 55 -237 63 -229 3 2 -7 48 -21
102 -14 54 -30 125 -36 157 -6 33 -16 65 -21 70 -8 8 -8 4 -2 -15z"/>
<path d="M220 1260 c0 -5 5 -10 10 -10 6 0 10 5 10 10 0 6 -4 10 -10 10 -5 0
-10 -4 -10 -10z"/>
<path d="M56 1173 c-6 -14 -5 -15 5 -6 7 7 10 15 7 18 -3 3 -9 -2 -12 -12z"/>
<path d="M43 1110 c0 -25 2 -35 4 -22 2 12 2 32 0 45 -2 12 -4 2 -4 -23z"/>
<path d="M2830 1125 c-18 -21 -3 -32 16 -13 10 9 12 18 6 22 -5 3 -15 -1 -22
-9z"/>
<path d="M3820 1106 c0 -20 4 -35 9 -32 5 4 12 0 15 -6 4 -7 4 3 1 22 -8 51
-25 62 -25 16z"/>
<path d="M2158 1124 c-5 -4 -7 -37 -7 -73 l1 -66 9 60 c10 64 9 91 -3 79z"/>
<path d="M4358 1093 c-3 -4 -6 -42 -7 -83 -1 -52 -6 -78 -16 -86 -8 -6 -15
-17 -15 -25 0 -10 2 -11 8 -2 4 6 45 17 91 23 68 10 81 15 69 24 -10 8 -19 37
-25 81 l-8 70 -47 3 c-25 2 -48 -1 -50 -5z"/>
<path d="M4242 1045 c-10 -42 -11 -73 -3 -127 2 -13 21 -9 37 7 14 13 14 15 0
15 -12 0 -16 16 -18 78 l-3 77 -13 -50z"/>
<path d="M1 1000 c-2 -62 19 -569 25 -599 4 -20 7 -22 15 -10 11 17 2 321 -13
429 -6 41 -14 109 -18 150 -5 57 -7 64 -9 30z"/>
<path d="M2658 1014 c-5 -4 -8 -30 -7 -58 l1 -51 9 40 c11 44 8 81 -3 69z"/>
<path d="M2912 988 c-7 -7 -12 -16 -12 -20 0 -12 28 -10 36 3 10 17 -10 31
-24 17z"/>
<path d="M42 945 c1 -34 2 -40 5 -17 2 17 8 32 12 32 4 0 5 -21 1 -46 -4 -25
-4 -80 1 -123 4 -42 8 -87 8 -100 2 -57 10 -7 20 113 10 131 5 166 -24 166 -7
0 -16 6 -18 13 -3 6 -5 -10 -5 -38z"/>
<path d="M2762 973 c2 -9 9 -18 16 -21 18 -6 15 25 -4 32 -11 4 -14 1 -12 -11z"/>
<path d="M5108 943 c-2 -27 -1 -79 3 -118 5 -63 6 -58 7 48 2 121 -2 152 -10
70z"/>
<path d="M4276 963 c-6 -14 -5 -15 5 -6 7 7 10 15 7 18 -3 3 -9 -2 -12 -12z"/>
<path d="M2816 952 c-3 -6 -1 -14 5 -17 15 -10 25 3 12 16 -7 7 -13 7 -17 1z"/>
<path d="M170 935 c0 -5 5 -17 10 -25 5 -8 10 -10 10 -5 0 6 -5 17 -10 25 -5
8 -10 11 -10 5z"/>
<path d="M2711 863 c-1 -7 -10 -13 -20 -13 -11 0 -23 -4 -26 -10 -3 -5 1 -10
9 -10 9 0 35 -25 59 -55 24 -32 50 -55 61 -55 15 0 9 11 -29 55 -25 30 -42 55
-35 55 13 0 110 -48 130 -65 8 -7 33 -16 55 -20 57 -10 75 -22 75 -50 0 -14 5
-25 10 -25 6 0 10 7 10 15 0 16 25 21 34 6 3 -5 16 -7 27 -4 20 6 20 6 3 17
-11 5 -27 11 -36 13 -9 1 -32 12 -50 23 -18 11 -40 20 -48 20 -8 0 -56 20
-105 45 -50 25 -95 45 -102 45 -6 0 -14 6 -16 13 -4 10 -6 10 -6 0z"/>
<path d="M4567 803 c-30 -3 -37 -8 -33 -20 4 -9 2 -21 -4 -28 -15 -18 52 -29
124 -20 56 7 56 8 56 41 l0 34 -52 -2 c-29 -1 -70 -3 -91 -5z"/>
<path d="M2456 774 c-6 -15 -4 -15 11 -3 10 7 20 15 22 16 2 2 -3 3 -11 3 -9
0 -19 -7 -22 -16z"/>
<path d="M2530 759 c0 -5 5 -7 10 -4 6 3 10 8 10 11 0 2 -4 4 -10 4 -5 0 -10
-5 -10 -11z"/>
<path d="M3836 752 c-3 -6 -1 -14 5 -17 15 -10 25 3 12 16 -7 7 -13 7 -17 1z"/>
<path d="M1840 713 c0 -15 2 -15 9 -4 5 8 16 11 25 8 9 -4 16 -2 16 3 0 6 -11
10 -25 10 -17 0 -25 -5 -25 -17z"/>
<path d="M2728 723 c7 -3 16 -2 19 1 4 3 -2 6 -13 5 -11 0 -14 -3 -6 -6z"/>
<path d="M2658 713 c7 -3 16 -2 19 1 4 3 -2 6 -13 5 -11 0 -14 -3 -6 -6z"/>
<path d="M2862 654 c10 -10 20 -16 22 -13 3 3 -5 11 -17 18 -21 13 -21 12 -5
-5z"/>
<path d="M2258 630 c-11 -38 -10 -56 3 -43 6 6 9 23 7 39 l-3 29 -7 -25z"/>
<path d="M1014 594 c3 -9 6 -27 6 -40 0 -19 5 -24 24 -24 31 0 44 30 16 37
-11 3 -20 14 -20 24 0 11 -7 19 -16 19 -11 0 -14 -5 -10 -16z"/>
<path d="M1078 603 c6 -2 18 -2 25 0 6 3 1 5 -13 5 -14 0 -19 -2 -12 -5z"/>
<path d="M2877 603 c-12 -12 -7 -22 8 -17 8 4 15 10 15 15 0 11 -14 12 -23 2z"/>
<path d="M4312 585 c0 -16 2 -22 5 -12 2 9 2 23 0 30 -3 6 -5 -1 -5 -18z"/>
<path d="M652 580 c0 -14 2 -19 5 -12 2 6 2 18 0 25 -3 6 -5 1 -5 -13z"/>
<path d="M2671 584 c0 -11 3 -14 6 -6 3 7 2 16 -1 19 -3 4 -6 -2 -5 -13z"/>
<path d="M2580 550 c0 -5 5 -10 10 -10 6 0 10 5 10 10 0 6 -4 10 -10 10 -5 0
-10 -4 -10 -10z"/>
<path d="M2997 553 c-4 -3 -7 -11 -7 -17 0 -6 5 -5 12 2 6 6 9 14 7 17 -3 3
-9 2 -12 -2z"/>
<path d="M3036 546 c3 -9 11 -16 16 -16 13 0 5 23 -10 28 -7 2 -10 -2 -6 -12z"/>
<path d="M2560 526 c0 -9 5 -16 10 -16 6 0 10 4 10 9 0 6 -4 13 -10 16 -5 3
-10 -1 -10 -9z"/>
<path d="M4105 500 c-4 -17 -5 -34 -2 -36 3 -3 8 9 12 26 4 17 5 34 2 36 -3 3
-8 -9 -12 -26z"/>
<path d="M2880 495 c0 -8 7 -15 15 -15 8 0 15 -7 15 -16 0 -25 54 -14 58 12 2
17 -4 23 -29 28 -47 9 -59 7 -59 -9z"/>
<path d="M4915 448 c-49 -5 -145 -7 -213 -6 -127 3 -158 -9 -68 -26 l48 -10
-7 -203 -8 -203 87 0 86 0 1 43 c1 23 1 112 2 197 0 85 2 122 4 82 5 -87 23
-88 23 -2 0 65 7 74 50 65 25 -6 30 -11 30 -36 0 -18 4 -28 10 -24 6 3 10 20
10 37 0 25 3 29 18 23 9 -4 43 -9 75 -12 l57 -4 0 45 0 46 -57 -1 c-32 -1 -98
-6 -148 -11z"/>
<path d="M420 380 c0 -40 4 -70 10 -70 6 0 10 30 10 70 0 40 -4 70 -10 70 -6
0 -10 -30 -10 -70z"/>
<path d="M4518 443 c6 -2 18 -2 25 0 6 3 1 5 -13 5 -14 0 -19 -2 -12 -5z"/>
<path d="M1787 423 c-3 -5 -4 -19 -3 -31 2 -21 8 -24 47 -27 25 -1 56 -6 69
-10 22 -7 23 -5 16 25 -3 18 -6 36 -6 41 0 11 -117 12 -123 2z"/>
<path d="M2666 404 c-27 -19 -15 -27 25 -16 32 8 33 9 14 19 -15 9 -25 8 -39
-3z"/>
<path d="M4249 408 c-3 -30 3 -74 11 -81 4 -5 18 -6 30 -2 18 6 21 13 18 48
-3 37 -6 42 -30 45 -18 2 -28 -2 -29 -10z"/>
<path d="M2775 400 c3 -5 10 -10 16 -10 5 0 9 5 9 10 0 6 -7 10 -16 10 -8 0
-12 -4 -9 -10z"/>
<path d="M2885 400 c-44 -6 -45 -9 -3 -14 16 -2 22 -26 6 -27 -7 0 -44 0 -83
0 -111 2 -55 -19 70 -26 l105 -6 0 30 c0 30 -16 54 -34 51 -6 0 -33 -4 -61 -8z
m55 -30 c0 -5 -4 -10 -10 -10 -5 0 -10 5 -10 10 0 6 5 10 10 10 6 0 10 -4 10
-10z"/>
<path d="M4130 401 c0 -5 12 -12 27 -16 15 -3 32 -14 39 -23 11 -15 14 -15 22
8 5 14 8 28 5 33 -6 10 -93 9 -93 -2z"/>
<path d="M2440 360 c20 -13 33 -13 25 0 -3 6 -14 10 -23 10 -15 0 -15 -2 -2
-10z"/>
<path d="M19 295 c-1 -25 -2 -50 -3 -57 -1 -6 33 -22 74 -34 79 -25 104 -25
49 0 -32 14 -33 15 -11 21 22 7 32 35 12 35 -5 0 -10 7 -10 15 0 8 -3 14 -7
13 -5 -1 -21 4 -36 10 -16 7 -33 12 -38 12 -5 0 -9 7 -9 15 0 8 -4 15 -10 15
-5 0 -11 -20 -11 -45z"/>
<path d="M1194 170 c0 -96 2 -136 3 -87 2 48 2 126 0 175 -1 48 -3 8 -3 -88z"/>
<path d="M2440 336 c0 -2 9 -6 20 -9 11 -3 20 -1 20 4 0 5 -9 9 -20 9 -11 0
-20 -2 -20 -4z"/>
<path d="M4199 333 c-8 -39 -5 -73 5 -73 7 0 10 14 8 40 -4 36 -10 51 -13 33z"/>
<path d="M1739 270 c0 -23 -1 -24 -10 -5 -7 16 -8 14 -4 -10 8 -41 50 -129 70
-145 8 -7 15 -18 15 -25 0 -9 -12 -9 -52 1 -59 16 -127 19 -113 5 9 -8 172
-61 189 -61 4 0 14 -7 22 -15 17 -17 64 -20 64 -5 0 6 5 10 11 10 5 0 8 -4 5
-8 -2 -4 49 -9 115 -11 80 -2 119 1 119 8 0 6 -6 11 -13 11 -11 0 -45 29 -75
65 -21 25 -3 17 51 -21 27 -20 61 -37 74 -39 14 -1 29 -7 36 -14 6 -6 22 -11
36 -10 l26 0 -25 12 c-14 6 -27 14 -30 18 -3 3 -18 13 -35 22 -29 16 -28 16
55 12 92 -4 221 -28 280 -51 22 -9 60 -14 93 -12 l55 3 -104 61 c-57 34 -104
59 -104 55 0 -3 32 -30 71 -58 39 -29 69 -53 67 -53 -7 0 -304 102 -332 114
-34 15 -213 78 -261 92 -42 12 -95 6 -95 -11 0 -8 14 -21 30 -30 18 -9 30 -23
30 -35 0 -21 -16 -25 -40 -10 -9 5 -19 5 -26 0 -27 -23 -126 52 -173 130 -20
33 -21 34 -22 10z m176 -171 c11 -17 -1 -21 -15 -4 -8 9 -8 15 -2 15 6 0 14
-5 17 -11z m83 5 c12 -4 22 -14 22 -23 0 -9 5 -22 12 -29 7 -7 8 -12 4 -12 -5
0 -2 -7 5 -16 12 -15 11 -16 -11 -9 -34 10 -78 33 -84 43 -8 13 5 52 18 52 6
0 21 -3 34 -6z"/>
<path d="M1972 75 c1 -10 13 -24 26 -33 19 -13 22 -13 22 1 0 8 -12 22 -26 32
-24 16 -26 16 -22 0z"/>
<path d="M190 250 c0 -5 5 -10 10 -10 6 0 10 5 10 10 0 6 -4 10 -10 10 -5 0
-10 -4 -10 -10z"/>
<path d="M4936 153 c-4 -59 -9 -118 -12 -130 -2 -13 0 -23 5 -23 9 0 27 247
18 256 -3 3 -8 -43 -11 -103z"/>
<path d="M448 233 c12 -2 32 -2 45 0 12 2 2 4 -23 4 -25 0 -35 -2 -22 -4z"/>
<path d="M213 216 c3 -8 -3 -17 -16 -21 -18 -6 -14 -9 23 -15 58 -10 331 0
347 12 18 15 5 30 -15 19 -11 -6 -59 -4 -127 5 -149 18 -219 18 -212 0z"/>
<path d="M700 209 c0 -22 -8 -30 -42 -45 -35 -14 -67 -18 -168 -16 -69 1 -137
5 -152 8 -17 3 -28 1 -28 -5 0 -6 11 -11 25 -11 14 0 25 -4 25 -10 0 -5 -19
-10 -43 -10 -43 0 -229 39 -280 59 -36 14 -37 14 -37 -4 0 -21 33 -33 190 -65
87 -18 121 -28 95 -29 -60 -1 -184 24 -237 48 -27 11 -48 16 -48 10 0 -18 88
-50 183 -65 170 -28 446 -8 527 37 41 23 48 33 30 44 -5 3 -10 15 -10 26 0 10
5 19 10 19 6 0 10 4 10 10 0 5 -7 7 -16 3 -9 -3 -20 0 -25 8 -6 10 -9 7 -9
-12z m15 -75 c-24 -18 -107 -34 -168 -33 -47 1 -44 3 37 15 50 8 99 20 110 28
26 17 46 8 21 -10z"/>
<path d="M2778 203 c7 -3 16 -2 19 1 4 3 -2 6 -13 5 -11 0 -14 -3 -6 -6z"/>
<path d="M2870 135 c-70 -14 -169 -28 -187 -27 -11 1 -24 -5 -27 -13 -7 -19
31 -20 69 -3 14 6 28 8 31 5 11 -11 -16 -36 -32 -30 -8 3 -14 0 -14 -6 0 -6
12 -16 26 -21 33 -13 34 -13 34 8 1 38 33 63 93 69 31 3 57 10 57 14 0 9 -18
10 -50 4z"/>
<path d="M2945 130 c3 -5 8 -10 11 -10 2 0 4 5 4 10 0 6 -5 10 -11 10 -5 0 -7
-4 -4 -10z"/>
<path d="M2360 31 c0 -13 56 -33 77 -28 14 3 9 8 -19 20 -42 19 -58 21 -58 8z"/>
</g>
</svg>
